<?xml version="1.0" encoding="UTF-8" standalone="no"?>
<svg
   xmlns:dc="http://purl.org/dc/elements/1.1/"
   xmlns:cc="http://creativecommons.org/ns#"
   xmlns:rdf="http://www.w3.org/1999/02/22-rdf-syntax-ns#"
   xmlns:svg="http://www.w3.org/2000/svg"
   xmlns="http://www.w3.org/2000/svg"
   xmlns:sodipodi="http://sodipodi.sourceforge.net/DTD/sodipodi-0.dtd"
   xmlns:inkscape="http://www.inkscape.org/namespaces/inkscape"
   inkscape:version="1.0 (4035a4fb49, 2020-05-01)"
   sodipodi:docname="porifera2.svg"
   id="2773f1c0-b6c3-11eb-9994-109836fbf317"
   version="1.1"
   width="500.0px"
   height="500.0px">
  <metadata
     id="metadata101">
    <rdf:RDF>
      <cc:Work
         rdf:about="">
        <dc:format>image/svg+xml</dc:format>
        <dc:type
           rdf:resource="http://purl.org/dc/dcmitype/StillImage" />
        <dc:title></dc:title>
      </cc:Work>
    </rdf:RDF>
  </metadata>
  <defs
     id="defs99" />
  <sodipodi:namedview
     inkscape:current-layer="2773f1c0-b6c3-11eb-9994-109836fbf317"
     inkscape:window-maximized="1"
     inkscape:window-y="-8"
     inkscape:window-x="1358"
     inkscape:cy="263.48921"
     inkscape:cx="250"
     inkscape:zoom="1.112"
     showgrid="false"
     id="namedview97"
     inkscape:window-height="837"
     inkscape:window-width="1440"
     inkscape:pageshadow="2"
     inkscape:pageopacity="0"
     guidetolerance="10"
     gridtolerance="10"
     objecttolerance="10"
     borderopacity="1"
     bordercolor="#666666"
     pagecolor="#ffffff" />
  <circle
     r="227.06834"
     cy="250"
     cx="250"
     id="path112"
     style="opacity:1;fill:#0066ff;fill-opacity:1;stroke:none" />
  <g
     id="g94">
    <g
       id="g92">
      <g
         id="g30">
        <path
           id="path2"
           d="M 243.0525,57.7974 C 239.6348,54.8805 188.7796,300.3121 293.0208,359.5548 397.262,418.7976 337.3466,62.1158 305.4173,55.7548 273.488,49.3938 246.4703,60.7144 243.0525,57.7974 Z"
           style="stroke-width:2.8346;stroke:#898827;fill-rule:evenodd;stroke-miterlimit:10.433;fill:#ffed00;" />
        <path
           id="path4"
           d="M 241.7679,57.4812 C 241.7679,57.4812 294.4664,37.9539 312.0178,59.4511 329.5693,80.9483 295.9717,84.4171 275.2587,76.532 254.5457,68.647 245.9519,61.5272 241.7679,57.4812 Z"
           style="stroke-width:0.2835;stroke:#ffed00;fill-rule:evenodd;stroke-miterlimit:10.433;fill:#898827;" />
        <path
           id="path6"
           d="M 283.0918,108.6738 C 284.9055,100.8647 277.9413,92.5727 267.54,90.1569 257.1388,87.741 247.2328,92.1148 245.419,99.9239 243.6053,107.733 250.5695,116.0251 260.9707,118.4409 271.372,120.8567 281.278,116.4829 283.0918,108.6738 Z"
           style="fill-rule:evenodd;fill:#898827;" />
        <path
           id="path8"
           d="M 317.8184,130.0434 C 319.1098,124.4834 316.099,119.032 311.095,117.8698 306.0911,116.7075 300.9858,120.2739 299.6944,125.8339 298.4031,131.3938 301.4139,136.8453 306.4178,138.0075 311.4218,139.1697 316.5271,135.6033 317.8184,130.0434 Z"
           style="fill-rule:evenodd;fill:#c2bd22;" />
        <path
           id="path10"
           d="M 286.0249,154.2062 C 287.3162,148.6462 284.3055,143.1948 279.3015,142.0325 274.2976,140.8703 269.1923,144.4367 267.9009,149.9967 266.6096,155.5566 269.6203,161.0081 274.6243,162.1703 279.6282,163.3325 284.7335,159.7661 286.0249,154.2062 Z"
           style="fill-rule:evenodd;fill:#898827;" />
        <path
           id="path12"
           d="M 278.6579,197.9505 C 279.3617,194.9204 277.7208,191.9493 274.9936,191.3159 272.2665,190.6825 269.4841,192.6262 268.7803,195.6564 268.0765,198.6865 269.7174,201.6576 272.4446,202.291 275.1717,202.9244 277.9541,200.9807 278.6579,197.9505 Z"
           style="fill-rule:evenodd;fill:#898827;" />
        <path
           id="path14"
           d="M 339.0099,273.5634 C 339.7137,270.5332 338.0729,267.5622 335.3457,266.9288 332.6186,266.2954 329.8362,268.239 329.1324,271.2692 328.4286,274.2994 330.0695,277.2704 332.7966,277.9038 335.5238,278.5372 338.3062,276.5935 339.0099,273.5634 Z"
           style="fill-rule:evenodd;fill:#898827;" />
        <path
           id="path16"
           d="M 329.3943,183.7577 C 330.0981,180.7275 328.4572,177.7565 325.7301,177.1231 323.0029,176.4896 320.2206,178.4333 319.5168,181.4635 318.813,184.4937 320.4539,187.4647 323.181,188.0981 325.9082,188.7315 328.6905,186.7878 329.3943,183.7577 Z"
           style="fill-rule:evenodd;fill:#898827;" />
        <path
           id="path18"
           d="M 246.8738,176.8218 C 247.5775,173.7917 245.9367,170.8206 243.2095,170.1872 240.4824,169.5538 237.7,171.4975 236.9962,174.5276 236.2924,177.5578 237.9333,180.5288 240.6604,181.1623 243.3876,181.7957 246.17,179.852 246.8738,176.8218 Z"
           style="fill-rule:evenodd;fill:#b0ac24;" />
        <path
           id="path20"
           d="M 265.496,237.9728 C 266.9433,229.1897 264.059,221.1244 259.0551,219.9622 254.0511,218.8 248.8193,224.9802 247.372,233.7633 245.9246,242.5463 248.8089,250.6116 253.8129,251.7739 258.8168,252.9361 264.0486,246.7558 265.496,237.9728 Z"
           style="fill-rule:evenodd;fill:#898827;" />
        <path
           id="path22"
           d="M 322.8474,228.5244 C 326.1902,221.0969 324.2482,212.9794 318.5109,210.3974 312.7736,207.8153 305.41,211.7449 302.0672,219.1725 298.7245,226.6 300.6665,234.7175 306.4038,237.2995 312.1411,239.8816 319.5047,235.952 322.8474,228.5244 Z"
           style="fill-rule:evenodd;fill:#898827;" />
        <path
           id="path24"
           d="M 281.4012,277.6692 C 281.4375,272.4101 279.2554,267.6316 276.5282,266.9982 273.8011,266.3647 271.56,270.116 271.5237,275.375 271.4873,280.634 273.6695,285.4126 276.3966,286.046 279.1238,286.6794 281.3649,282.9282 281.4012,277.6692 Z"
           style="fill-rule:evenodd;fill:#898827;" />
        <path
           id="path26"
           d="M 314.0236,270.1116 C 314.0498,266.3316 312.4813,262.8969 310.5211,262.4417 308.561,261.9864 306.9502,264.6826 306.9241,268.4626 306.8979,272.2426 308.4664,275.6772 310.4266,276.1325 312.3867,276.5878 313.9975,273.8915 314.0236,270.1116 Z"
           style="fill-rule:evenodd;fill:#898827;" />
        <path
           id="path28"
           d="M 315.401,318.1863 C 316.3732,314.0007 312.4815,309.5193 306.7104,308.179 300.9394,306.8386 295.471,309.1459 294.4988,313.3315 293.5267,317.517 297.4184,321.9984 303.1894,323.3388 308.9604,324.6791 314.4289,322.3718 315.401,318.1863 Z"
           style="fill-rule:evenodd;fill:#9f9c26;" />
      </g>
      <g
         id="g60">
        <path
           id="path32"
           d="M 57.1266,38.6338 C 50.7873,35.3472 60.306,433.5588 242.9711,487.7875 425.6362,542.0162 204.646,11.4162 152.9326,13.0493 101.2191,14.6823 63.466,41.9204 57.1266,38.6338 Z"
           style="stroke-width:2.8346;stroke:#898827;fill-rule:evenodd;stroke-miterlimit:10.433;fill:#ffed00;" />
        <path
           id="path34"
           d="M 55.0243,38.6062 C 55.0243,38.6062 129.5805,-10.5692 164.4792,16.398 199.3778,43.3651 148.6162,60.8144 113.7175,56.0555 78.8189,51.2966 62.9558,43.3651 55.0243,38.6062 Z"
           style="stroke-width:0.2835;stroke:#ffed00;fill-rule:evenodd;stroke-miterlimit:10.433;fill:#898827;" />
        <path
           id="path36"
           d="M 137.3993,102.9946 C 137.3993,90.2541 123.6374,79.9219 106.6677,79.9219 89.6979,79.9219 75.936,90.2541 75.936,102.9946 75.936,115.7352 89.6979,126.0674 106.6677,126.0674 123.6374,126.0674 137.3993,115.7352 137.3993,102.9946 Z"
           style="fill-rule:evenodd;fill:#898827;" />
        <path
           id="path38"
           d="M 198.8392,123.589 C 198.8392,114.5179 192.2185,107.1616 184.0545,107.1616 175.8906,107.1616 169.2699,114.5179 169.2699,123.589 169.2699,132.6601 175.8906,140.0164 184.0545,140.0164 192.2185,140.0164 198.8392,132.6601 198.8392,123.589 Z"
           style="fill-rule:evenodd;fill:#c2bd22;" />
        <path
           id="path40"
           d="M 158.3104,172.4239 C 158.3104,163.3528 151.6897,155.9965 143.5258,155.9965 135.3618,155.9965 128.7411,163.3528 128.7411,172.4239 128.7411,181.495 135.3618,188.8513 143.5258,188.8513 151.6897,188.8513 158.3104,181.495 158.3104,172.4239 Z"
           style="fill-rule:evenodd;fill:#898827;" />
        <path
           id="path42"
           d="M 162.6342,242.7888 C 162.6342,237.8451 159.0259,233.8359 154.5765,233.8359 150.1272,233.8359 146.5189,237.8451 146.5189,242.7888 146.5189,247.7325 150.1272,251.7417 154.5765,251.7417 159.0259,251.7417 162.6342,247.7325 162.6342,242.7888 Z"
           style="fill-rule:evenodd;fill:#898827;" />
        <path
           id="path44"
           d="M 283.2448,338.1382 C 283.2448,333.1945 279.6365,329.1853 275.1872,329.1853 270.7378,329.1853 267.1295,333.1945 267.1295,338.1382 267.1295,343.0819 270.7378,347.0911 275.1872,347.0911 279.6365,347.0911 283.2448,343.0819 283.2448,338.1382 Z"
           style="fill-rule:evenodd;fill:#898827;" />
        <path
           id="path46"
           d="M 236.0711,202.5765 C 236.0711,197.6328 232.4628,193.6236 228.0135,193.6236 223.5641,193.6236 219.9558,197.6328 219.9558,202.5765 219.9558,207.5202 223.5641,211.5294 228.0135,211.5294 232.4628,211.5294 236.0711,207.5202 236.0711,202.5765 Z"
           style="fill-rule:evenodd;fill:#898827;" />
        <path
           id="path48"
           d="M 105.8358,221.5093 C 105.8358,216.5655 102.2276,212.5564 97.7782,212.5564 93.3289,212.5564 89.7206,216.5655 89.7206,221.5093 89.7206,226.453 93.3289,230.4622 97.7782,230.4622 102.2276,230.4622 105.8358,226.453 105.8358,221.5093 Z"
           style="fill-rule:evenodd;fill:#b0ac24;" />
        <path
           id="path50"
           d="M 156.6492,309.4753 C 155.7318,295.3588 148.3672,283.9107 140.2032,283.9107 132.0392,283.9107 126.1625,295.3588 127.0798,309.4753 127.9972,323.5918 135.3618,335.0398 143.5258,335.0398 151.6898,335.0398 157.5665,323.5918 156.6492,309.4753 Z"
           style="fill-rule:evenodd;fill:#898827;" />
        <path
           id="path52"
           d="M 242.032,274.2291 C 244.536,261.5295 238.6113,249.6619 228.8016,247.7277 218.9919,245.7935 209.0059,254.5239 206.5019,267.2236 203.9979,279.9233 209.9226,291.7909 219.7322,293.7251 229.5419,295.6593 239.528,286.9288 242.032,274.2291 Z"
           style="fill-rule:evenodd;fill:#898827;" />
        <path
           id="path54"
           d="M 195.5429,365.2066 C 193.7083,357.0525 188.6122,350.4399 184.1629,350.4399 179.7135,350.4399 177.593,357.0525 179.4276,365.2066 181.2622,373.3606 186.3583,379.9732 190.8076,379.9732 195.257,379.9732 197.3774,373.3606 195.5429,365.2066 Z"
           style="fill-rule:evenodd;fill:#898827;" />
        <path
           id="path56"
           d="M 243.325,341.7784 C 242.0064,335.9176 238.3435,331.1647 235.1455,331.1647 231.9475,331.1647 230.4234,335.9176 231.742,341.7784 233.0606,347.6392 236.7235,352.3921 239.9215,352.3921 243.1195,352.3921 244.6436,347.6392 243.325,341.7784 Z"
           style="fill-rule:evenodd;fill:#898827;" />
        <path
           id="path58"
           d="M 262.742,415.7026 C 262.742,408.8738 255.1064,403.3359 245.691,403.3359 236.2755,403.3359 228.6399,408.8738 228.6399,415.7026 228.6399,422.5313 236.2755,428.0692 245.691,428.0692 255.1064,428.0692 262.742,422.5313 262.742,415.7026 Z"
           style="fill-rule:evenodd;fill:#9f9c26;" />
      </g>
      <g
         id="g90">
        <path
           id="path62"
           d="M 441.6877,135.1765 C 445.6368,132.2997 463.2456,418.1642 347.0325,472.0834 230.8194,526.0025 343.5844,127.8839 377.5015,124.779 411.4187,121.674 437.7386,138.0533 441.6877,135.1765 Z"
           style="stroke-width:2.8346;stroke:#898827;fill-rule:evenodd;stroke-miterlimit:10.433;fill:#ffed00;" />
        <path
           id="path64"
           d="M 443.0609,134.983 C 443.0609,134.983 391.3596,105.9406 370.1507,128.1306 348.9419,150.3206 383.1832,158.6171 405.7213,152.3258 428.2594,146.0346 438.1587,139.0454 443.0609,134.983 Z"
           style="stroke-width:0.2835;stroke:#ffed00;fill-rule:evenodd;stroke-miterlimit:10.433;fill:#898827;" />
        <path
           id="path66"
           d="M 393.0434,187.8866 C 392.2808,178.7657 400.6624,170.2315 411.7602,168.829 422.858,167.4265 432.4764,173.6858 433.2389,182.8067 434.0015,191.9276 425.6199,200.4618 414.5221,201.8643 403.4243,203.2668 393.8059,197.0075 393.0434,187.8866 Z"
           style="fill-rule:evenodd;fill:#898827;" />
        <path
           id="path68"
           d="M 354.0957,207.7079 C 353.5528,201.214 357.4423,195.4005 362.7813,194.7257 368.1204,194.051 372.8904,198.7701 373.4334,205.2641 373.9763,211.758 370.0868,217.5716 364.7477,218.2463 359.4087,218.921 354.6386,214.2019 354.0957,207.7079 Z"
           style="fill-rule:evenodd;fill:#c2bd22;" />
        <path
           id="path70"
           d="M 383.5235,239.319 C 382.9805,232.825 386.87,227.0115 392.2091,226.3367 397.5481,225.662 402.3182,230.3811 402.8611,236.8751 403.404,243.369 399.5146,249.1826 394.1755,249.8573 388.8365,250.5321 384.0664,245.8129 383.5235,239.319 Z"
           style="fill-rule:evenodd;fill:#898827;" />
        <path
           id="path72"
           d="M 384.9073,290.0502 C 384.6114,286.511 386.7312,283.3426 389.641,282.9749 392.5507,282.6072 395.1504,285.1791 395.4463,288.7183 395.7422,292.2575 393.6224,295.4258 390.7127,295.7936 387.8029,296.1613 385.2032,293.5894 384.9073,290.0502 Z"
           style="fill-rule:evenodd;fill:#898827;" />
        <path
           id="path74"
           d="M 311.7376,368.2787 C 311.4417,364.7395 313.5615,361.5711 316.4713,361.2034 319.381,360.8357 321.9807,363.4076 322.2766,366.9468 322.5725,370.486 320.4527,373.6544 317.543,374.0221 314.6332,374.3898 312.0335,371.8179 311.7376,368.2787 Z"
           style="fill-rule:evenodd;fill:#898827;" />
        <path
           id="path76"
           d="M 334.4745,267.3319 C 334.1786,263.7927 336.2983,260.6243 339.2081,260.2566 342.1179,259.8889 344.7176,262.4608 345.0135,266.0 345.3094,269.5392 343.1896,272.7075 340.2798,273.0753 337.37,273.443 334.7704,270.8711 334.4745,267.3319 Z"
           style="fill-rule:evenodd;fill:#898827;" />
        <path
           id="path78"
           d="M 420.7785,270.1219 C 420.4826,266.5828 422.6024,263.4144 425.5121,263.0466 428.4219,262.6789 431.0216,265.2508 431.3175,268.79 431.6134,272.3292 429.4936,275.4976 426.5838,275.8653 423.6741,276.2331 421.0744,273.6611 420.7785,270.1219 Z"
           style="fill-rule:evenodd;fill:#b0ac24;" />
        <path
           id="path80"
           d="M 392.8127,337.2961 C 392.5677,327.1143 396.6989,318.31 402.0379,317.6353 407.3769,316.9605 411.9054,324.6704 412.1504,334.8522 412.3953,345.034 408.2642,353.8382 402.9252,354.513 397.5861,355.1877 393.0577,347.4778 392.8127,337.2961 Z"
           style="fill-rule:evenodd;fill:#898827;" />
        <path
           id="path82"
           d="M 334.8647,319.1203 C 332.4671,310.2357 335.6314,301.25 341.9309,299.0546 348.2305,296.8592 355.2836,302.2839 357.6813,311.1686 360.079,320.0533 356.9147,329.0389 350.6151,331.2343 344.3156,333.4298 337.2624,328.005 334.8647,319.1203 Z"
           style="fill-rule:evenodd;fill:#898827;" />
        <path
           id="path84"
           d="M 370.7128,380.4083 C 371.4245,374.4193 374.3614,369.2642 377.2712,368.8964 380.181,368.5287 381.9635,373.0874 381.2518,379.0764 380.54,385.0655 377.6031,390.2206 374.6933,390.5883 371.7835,390.9561 370.001,386.3974 370.7128,380.4083 Z"
           style="fill-rule:evenodd;fill:#898827;" />
        <path
           id="path86"
           d="M 338.0621,367.5854 C 338.5737,363.2807 340.6846,359.5754 342.776,359.3111 344.8675,359.0467 346.1487,362.3234 345.6371,366.628 345.1255,370.9327 343.0146,374.638 340.9232,374.9024 338.8317,375.1667 337.5505,371.8901 338.0621,367.5854 Z"
           style="fill-rule:evenodd;fill:#898827;" />
        <path
           id="path88"
           d="M 329.7884,422.1121 C 329.3796,417.2235 334.0417,412.6278 340.1992,411.8497 346.3567,411.0715 351.6816,414.405 352.0903,419.2936 352.499,424.1823 347.837,428.7779 341.6795,429.5561 335.522,430.3343 330.1971,427.0008 329.7884,422.1121 Z"
           style="fill-rule:evenodd;fill:#9f9c26;" />
      </g>
    </g>
  </g>
</svg>
