<?xml version="1.0" encoding="utf-8"?>
<!-- Generator: Adobe Illustrator 27.5.0, SVG Export Plug-In . SVG Version: 6.00 Build 0)  -->
<svg version="1.1" xmlns="http://www.w3.org/2000/svg" xmlns:xlink="http://www.w3.org/1999/xlink" x="0px" y="0px"
	 viewBox="0 0 750 500" style="enable-background:new 0 0 750 500;" xml:space="preserve">
<g id="BACKGROUND">
	<rect style="fill:#FFFFFF;" width="750" height="500"/>
</g>
<g id="OBJECTS">
	<g>
		<polygon style="fill:#96C15A;" points="324.151,313.314 286.841,291.771 320.29,272.46 357.602,294.001 		"/>
		<polygon style="fill:#8BB353;" points="324.15,335.374 286.988,313.853 286.988,291.79 324.15,313.314 		"/>
		<polygon style="fill:#7DA14A;" points="357.601,316.061 324.15,335.374 324.151,313.314 357.602,294.001 		"/>
	</g>
	<g>
		<polygon style="fill:#96C15A;" points="498.73,414.491 461.419,392.948 494.868,373.636 532.179,395.179 		"/>
		<polygon style="fill:#8BB353;" points="498.728,436.552 461.565,415.03 461.565,392.968 498.728,414.491 		"/>
		<polygon style="fill:#7DA14A;" points="532.179,417.239 498.728,436.552 498.73,414.491 532.179,395.177 		"/>
	</g>
	<g>
		<polygon style="fill:#F55548;" points="221.88,411.519 151.731,371.019 185.181,351.706 255.328,392.206 		"/>
		<path style="fill:#D44A3E;" d="M198.55,378.737c-6.277,3.625-16.454,3.625-22.732,0c-6.277-3.625-6.278-9.5-0.001-13.125
			c6.278-3.625,16.455-3.625,22.733,0C204.827,369.237,204.828,375.112,198.55,378.737z"/>
		<path style="fill:#D44A3E;" d="M229.943,396.862c-6.277,3.625-16.454,3.625-22.732,0c-6.277-3.625-6.278-9.5-0.001-13.125
			c6.278-3.625,16.455-3.625,22.733,0C236.221,387.362,236.222,393.237,229.943,396.862z"/>
		<polygon style="fill:#D44A3E;" points="221.88,433.544 151.731,393.044 151.731,370.981 221.88,411.481 		"/>
		<polygon style="fill:#CC4033;" points="255.327,414.243 221.877,433.556 221.878,411.493 255.328,392.181 		"/>
		<rect x="171.129" y="368.526" style="fill:#D44A3E;" width="32.108" height="3.502"/>
		<rect x="202.523" y="386.798" style="fill:#D44A3E;" width="32.108" height="3.502"/>
		<path style="fill:#FF6152;" d="M198.55,375.112c-6.277,3.625-16.454,3.625-22.732,0c-6.277-3.625-6.278-9.5-0.001-13.125
			c6.278-3.625,16.455-3.625,22.733,0C204.827,365.612,204.828,371.487,198.55,375.112z"/>
		<path style="fill:#FF6152;" d="M229.943,393.237c-6.277,3.625-16.454,3.625-22.732,0c-6.277-3.625-6.278-9.5-0.001-13.125
			c6.278-3.625,16.455-3.625,22.733,0C236.221,383.737,236.222,389.612,229.943,393.237z"/>
	</g>
	<g>
		<polygon style="fill:#96C15A;" points="407.774,100.658 370.465,79.117 403.913,59.805 441.226,81.346 		"/>
		<polygon style="fill:#8BB353;" points="407.774,122.72 370.611,101.198 370.611,79.136 407.774,100.658 		"/>
		<polygon style="fill:#7DA14A;" points="441.224,103.408 407.774,122.72 407.774,100.658 441.226,81.346 		"/>
	</g>
	<g>
		<polygon style="fill:#96C15A;" points="640.904,152.77 603.595,131.228 637.043,111.916 674.356,133.458 		"/>
		<polygon style="fill:#8BB353;" points="640.904,174.831 603.741,153.309 603.741,131.247 640.904,152.77 		"/>
		<polygon style="fill:#7DA14A;" points="674.354,155.519 640.904,174.831 640.904,152.77 674.356,133.457 		"/>
	</g>
	<g>
		<polygon style="fill:#F55548;" points="290.651,332.731 220.503,292.231 253.952,272.919 324.101,313.419 		"/>
		<polygon style="fill:#D44A3E;" points="290.651,354.757 220.503,314.257 220.503,292.194 290.651,332.694 		"/>
		<polygon style="fill:#CC4033;" points="324.099,335.456 290.649,354.769 290.649,332.706 324.101,313.394 		"/>
	</g>
	<g>
		<polygon style="fill:#70B3A3;" points="215.575,213.697 115.333,155.822 148.782,136.51 249.024,194.385 		"/>
		<polygon style="fill:#5E968A;" points="215.577,235.729 115.333,177.854 115.333,155.791 215.575,213.666 		"/>
		<polygon style="fill:#54877C;" points="249.026,216.416 215.577,235.729 215.577,213.667 249.026,194.355 		"/>
	</g>
	<g>
		<polygon style="fill:#70B3A3;" points="658.353,28.06 558.112,85.934 524.663,66.622 624.901,8.748 		"/>
		<polygon style="fill:#5E968A;" points="558.112,107.985 524.663,88.672 524.663,66.61 558.112,85.922 		"/>
		<polygon style="fill:#54877C;" points="658.343,50.102 558.101,107.976 558.101,85.914 658.343,28.04 		"/>
	</g>
	<g>
		<polygon style="fill:#70B3A3;" points="332.261,63.45 232.022,121.323 198.571,102.011 298.811,44.137 		"/>
		<polygon style="fill:#5E968A;" points="232.022,143.374 198.571,124.062 198.571,101.999 232.022,121.312 		"/>
		<polygon style="fill:#54877C;" points="332.251,85.491 232.009,143.365 232.009,121.303 332.251,63.429 		"/>
	</g>
	<g>
		<polygon style="fill:#70B3A3;" points="477.364,333.7 377.125,391.573 343.675,372.261 443.913,314.388 		"/>
		<polygon style="fill:#5E968A;" points="377.125,413.624 343.675,394.311 343.675,372.249 377.125,391.561 		"/>
		<polygon style="fill:#54877C;" points="477.355,355.741 377.111,413.616 377.111,391.554 477.355,333.679 		"/>
	</g>
	<g>
		<polygon style="fill:#6592CC;" points="649.478,224.557 516.329,301.429 482.88,282.116 616.026,205.244 		"/>
		<polygon style="fill:#5B7CB8;" points="516.331,323.554 482.88,304.241 482.88,282.181 516.331,301.493 		"/>
		<polygon style="fill:#5275A3;" points="649.478,246.679 516.325,323.554 516.325,301.491 649.478,224.617 		"/>
	</g>
	<g>
		<polygon style="fill:#F55548;" points="152.511,91.274 82.364,131.773 48.914,112.46 119.06,71.961 		"/>
		<polygon style="fill:#D44A3E;" points="82.411,153.851 48.961,134.538 48.961,112.476 82.411,131.788 		"/>
		<polygon style="fill:#CC4033;" points="152.553,113.325 82.404,153.825 82.405,131.762 152.553,91.262 		"/>
	</g>
	<g>
		<polygon style="fill:#F55548;" points="602.325,392.858 532.179,433.356 498.73,414.044 568.876,373.546 		"/>
		<polygon style="fill:#D44A3E;" points="532.226,455.435 498.776,436.122 498.776,414.06 532.226,433.372 		"/>
		<polygon style="fill:#CC4033;" points="602.368,414.909 532.22,455.409 532.22,433.347 602.368,392.847 		"/>
	</g>
	<g>
		<polygon style="fill:#D44868;" points="498.161,117.529 464.712,136.841 431.263,156.153 501.05,196.444 534.499,177.133 
			567.948,157.821 		"/>
		<polygon style="fill:#C73C5B;" points="431.261,156.116 431.263,178.178 431.261,200.241 501.048,240.532 501.048,218.47 
			501.048,196.407 		"/>
		<polygon style="fill:#BA304F;" points="501.048,196.396 501.048,218.458 501.048,240.52 567.948,201.896 567.948,179.834 
			567.948,157.771 		"/>
		<path style="fill:#C73C5B;" d="M543.745,163.673c-6.277,3.624-16.455,3.625-22.734,0c-6.275-3.624-6.277-9.501,0-13.125
			c6.279-3.624,16.455-3.624,22.734,0C550.023,154.173,550.023,160.049,543.745,163.673z"/>
		<rect x="516.325" y="153.609" style="fill:#C73C5B;" width="32.107" height="3.502"/>
		<g>
			<path style="fill:#C73C5B;" d="M512.351,145.548c-6.277,3.624-16.453,3.625-22.732,0c-6.277-3.624-6.277-9.5,0-13.125
				c6.277-3.624,16.455-3.624,22.732,0C518.628,136.048,518.63,141.924,512.351,145.548z"/>
			<rect x="484.931" y="134.86" style="fill:#C73C5B;" width="32.107" height="3.502"/>
			<path style="fill:#E05576;" d="M512.351,142.045c-6.277,3.624-16.453,3.625-22.732,0c-6.277-3.624-6.277-9.501,0-13.125
				c6.277-3.624,16.455-3.624,22.732,0.001C518.628,132.545,518.63,138.421,512.351,142.045z"/>
		</g>
		<path style="fill:#E05576;" d="M543.745,160.17c-6.277,3.624-16.455,3.625-22.734,0c-6.275-3.624-6.277-9.501,0-13.125
			c6.279-3.624,16.455-3.624,22.734,0C550.023,150.67,550.023,156.546,543.745,160.17z"/>
	</g>
	<g>
		<polygon style="fill:#D44868;" points="117.479,220.68 84.029,239.991 50.58,259.304 120.367,299.595 153.816,280.282 
			187.266,260.972 		"/>
		<polygon style="fill:#C73C5B;" points="50.578,259.267 50.579,281.327 50.578,303.39 120.364,343.681 120.364,321.618 
			120.365,299.556 		"/>
		<polygon style="fill:#BA304F;" points="120.365,299.546 120.365,321.608 120.365,343.671 187.266,305.046 187.266,282.983 
			187.266,260.921 		"/>
	</g>
	<g>
		<polygon style="fill:#FF9E4A;" points="583.437,240.997 549.987,260.31 516.538,279.62 649.689,356.495 683.14,337.185 
			716.587,317.872 		"/>
		<polygon style="fill:#FF8E3D;" points="516.538,279.591 516.538,301.653 516.538,323.716 649.689,400.591 649.69,378.528 
			649.689,356.466 		"/>
		<polygon style="fill:#FF7F40;" points="649.69,356.431 649.69,378.493 649.69,400.556 716.591,361.931 716.591,339.868 
			716.591,317.806 		"/>
	</g>
	<g>
		<polygon style="fill:#FF9E4A;" points="347.493,134.86 314.043,154.172 280.594,173.483 413.745,250.358 447.194,231.048 
			480.644,211.735 		"/>
		<polygon style="fill:#FF8E3D;" points="280.594,173.454 280.594,195.516 280.594,217.579 413.745,294.452 413.745,272.392 
			413.745,250.329 		"/>
		<polygon style="fill:#FF7F40;" points="413.745,250.294 413.747,272.356 413.745,294.417 480.648,255.794 480.648,233.731 
			480.646,211.669 		"/>
	</g>
	<g>
		<polygon style="fill:#96C15A;" points="215.503,191.636 178.192,170.094 211.642,150.782 248.952,172.323 		"/>
		<polygon style="fill:#8BB353;" points="215.501,213.697 178.339,192.175 178.339,170.113 215.501,191.636 		"/>
		<polygon style="fill:#7DA14A;" points="248.952,194.385 215.501,213.697 215.503,191.636 248.952,172.323 		"/>
	</g>
	<g>
		<polygon style="fill:#F55548;" points="534.653,155.499 464.505,114.999 497.954,95.687 568.101,136.186 		"/>
		<polygon style="fill:#D44A3E;" points="534.653,177.524 464.505,137.024 464.505,114.962 534.653,155.462 		"/>
		<polygon style="fill:#CC4033;" points="568.101,158.223 534.649,177.535 534.651,155.474 568.101,136.161 		"/>
	</g>
	<g>
		<polygon style="fill:#96C15A;" points="152.716,52.052 115.405,30.51 148.854,11.199 186.166,32.74 		"/>
		<polygon style="fill:#8BB353;" points="152.714,74.114 115.552,52.591 115.552,30.529 152.714,52.052 		"/>
		<polygon style="fill:#7DA14A;" points="186.164,54.801 152.714,74.114 152.716,52.052 186.166,32.74 		"/>
	</g>
	<g>
		<defs>
			<rect id="SVGID_1_" width="102.533" height="98.916"/>
		</defs>
		<clipPath id="SVGID_00000081623591415928838020000003277533556760312733_">
			<use xlink:href="#SVGID_1_"  style="overflow:visible;"/>
		</clipPath>
		<g style="clip-path:url(#SVGID_00000081623591415928838020000003277533556760312733_);">
			<polygon style="fill:#D44868;" points="19.359,-32.709 -14.09,-13.398 -47.539,5.914 22.248,46.206 55.697,26.894 89.146,7.582 
							"/>
			<polygon style="fill:#C73C5B;" points="-47.541,5.877 -47.539,27.94 -47.541,50.002 22.246,90.294 22.246,68.231 22.246,46.168 
							"/>
			<polygon style="fill:#BA304F;" points="22.246,46.158 22.246,68.219 22.246,90.282 89.146,51.657 89.146,29.595 89.146,7.533 			
				"/>
		</g>
	</g>
	<g>
		<defs>
			<rect id="SVGID_00000053520457622167626160000015385075174095469187_" y="117.529" width="80.534" height="122.233"/>
		</defs>
		<clipPath id="SVGID_00000145771704829598794510000004541579810648928445_">
			<use xlink:href="#SVGID_00000053520457622167626160000015385075174095469187_"  style="overflow:visible;"/>
		</clipPath>
		<g style="clip-path:url(#SVGID_00000145771704829598794510000004541579810648928445_);">
			<polygon style="fill:#6592CC;" points="38.762,206.097 -94.391,129.22 -60.941,109.909 72.211,186.784 			"/>
			<polygon style="fill:#5B7CB8;" points="38.762,228.153 -94.391,151.278 -94.391,129.218 38.762,206.093 			"/>
			<polygon style="fill:#5275A3;" points="72.213,208.8 38.762,228.11 38.764,206.05 72.213,186.737 			"/>
			<rect x="-42.697" y="145.866" style="fill:#5B7CB8;" width="32.108" height="3.502"/>
		</g>
	</g>
	<g>
		<defs>
			<rect id="SVGID_00000016070694329068399900000007995070444624863935_" y="291.491" width="39.867" height="77.236"/>
		</defs>
		<clipPath id="SVGID_00000124870557930762378600000018196570712864052637_">
			<use xlink:href="#SVGID_00000016070694329068399900000007995070444624863935_"  style="overflow:visible;"/>
		</clipPath>
		<g style="clip-path:url(#SVGID_00000124870557930762378600000018196570712864052637_);">
			<polygon style="fill:#96C15A;" points="4.167,342.71 -33.144,321.168 0.306,301.856 37.616,323.398 			"/>
			<polygon style="fill:#8BB353;" points="4.165,364.772 -32.997,343.25 -32.997,321.188 4.165,342.71 			"/>
			<polygon style="fill:#7DA14A;" points="37.616,345.459 4.165,364.772 4.167,342.71 37.616,323.397 			"/>
		</g>
	</g>
	<g>
		<defs>
			<rect id="SVGID_00000134246134210786074460000010759619433090507152_" y="333.68" width="225.2" height="166.32"/>
		</defs>
		<clipPath id="SVGID_00000142138477835528303160000002184207739988810643_">
			<use xlink:href="#SVGID_00000134246134210786074460000010759619433090507152_"  style="overflow:visible;"/>
		</clipPath>
		<g style="clip-path:url(#SVGID_00000142138477835528303160000002184207739988810643_);">
			<polygon style="fill:#FF9E4A;" points="85.118,347.886 51.669,367.198 18.22,386.509 151.37,463.384 184.821,444.073 
				218.269,424.761 			"/>
			<polygon style="fill:#FF8E3D;" points="18.22,386.479 18.22,408.542 18.22,430.604 151.37,507.479 151.372,485.417 
				151.37,463.354 			"/>
			<polygon style="fill:#FF7F40;" points="151.372,463.319 151.372,485.382 151.372,507.444 218.272,468.819 218.272,446.757 
				218.272,424.694 			"/>
		</g>
	</g>
	<g>
		<defs>
			<rect id="SVGID_00000175310334957810430510000000259937565722917532_" x="87.121" y="402.264" width="246.226" height="97.736"/>
		</defs>
		<clipPath id="SVGID_00000000219768968565350050000009697272251371797634_">
			<use xlink:href="#SVGID_00000175310334957810430510000000259937565722917532_"  style="overflow:visible;"/>
		</clipPath>
		<g style="clip-path:url(#SVGID_00000000219768968565350050000009697272251371797634_);">
			<polygon style="fill:#6592CC;" points="318.44,428.29 185.292,505.163 151.843,485.851 284.989,408.978 			"/>
			<polygon style="fill:#5B7CB8;" points="185.293,527.288 151.843,507.976 151.843,485.915 185.293,505.228 			"/>
			<polygon style="fill:#5275A3;" points="318.439,450.413 185.288,527.288 185.288,505.226 318.439,428.351 			"/>
		</g>
	</g>
	<g>
		<polygon style="fill:#6592CC;" points="284.989,425.456 151.837,348.579 185.286,329.269 318.439,406.144 		"/>
		<polygon style="fill:#5B7CB8;" points="284.989,447.513 151.837,370.638 151.837,348.577 284.989,425.452 		"/>
		<polygon style="fill:#5275A3;" points="318.44,428.159 284.989,447.47 284.991,425.409 318.44,406.097 		"/>
	</g>
	<g>
		<defs>
			<rect id="SVGID_00000141454921991036449750000002445570874829909682_" x="310.721" y="422.17" width="184.813" height="77.83"/>
		</defs>
		<clipPath id="SVGID_00000142173341926995350790000006764382529438803599_">
			<use xlink:href="#SVGID_00000141454921991036449750000002445570874829909682_"  style="overflow:visible;"/>
		</clipPath>
		<g style="clip-path:url(#SVGID_00000142173341926995350790000006764382529438803599_);">
			<polygon style="fill:#D44868;" points="417.985,426.308 384.535,445.62 351.087,464.931 420.874,505.224 454.323,485.911 
				487.773,466.599 			"/>
			<polygon style="fill:#C73C5B;" points="351.085,464.894 351.085,486.956 351.085,509.019 420.87,549.31 420.87,527.247 
				420.872,505.185 			"/>
			<polygon style="fill:#BA304F;" points="420.872,505.175 420.872,527.237 420.872,549.3 487.773,510.675 487.773,488.612 
				487.773,466.55 			"/>
		</g>
	</g>
	<g>
		<defs>
			<rect id="SVGID_00000178189477436901963340000011653298920170352272_" x="544.2" y="418.666" width="169.628" height="81.334"/>
		</defs>
		<clipPath id="SVGID_00000170988107989873114710000002053720014358528150_">
			<use xlink:href="#SVGID_00000178189477436901963340000011653298920170352272_"  style="overflow:visible;"/>
		</clipPath>
		<g style="clip-path:url(#SVGID_00000170988107989873114710000002053720014358528150_);">
			<polygon style="fill:#70B3A3;" points="696.94,451.288 596.699,509.162 563.25,489.85 663.488,431.976 			"/>
			<polygon style="fill:#5E968A;" points="596.699,531.213 563.25,511.9 563.25,489.838 596.699,509.15 			"/>
			<polygon style="fill:#54877C;" points="696.93,473.329 596.688,531.203 596.688,509.142 696.93,451.268 			"/>
		</g>
	</g>
	<g>
		<defs>
			<rect id="SVGID_00000015351836246706115280000016846288099454933129_" x="703.034" y="359.181" width="46.966" height="102.32"/>
		</defs>
		<clipPath id="SVGID_00000028283001049220934630000012962734019171090310_">
			<use xlink:href="#SVGID_00000015351836246706115280000016846288099454933129_"  style="overflow:visible;"/>
		</clipPath>
		<g style="clip-path:url(#SVGID_00000028283001049220934630000012962734019171090310_);">
			<polygon style="fill:#F55548;" points="813.562,373.199 743.415,413.698 709.965,394.386 780.111,353.887 			"/>
			<polygon style="fill:#D44A3E;" points="743.462,435.776 710.012,416.463 710.012,394.401 743.462,413.714 			"/>
			<polygon style="fill:#CC4033;" points="813.604,395.25 743.455,435.751 743.456,413.688 813.604,373.188 			"/>
		</g>
	</g>
	<g>
		<defs>
			
				<rect id="SVGID_00000008134520009857583480000010233915192989017017_" x="640.904" y="121.374" width="109.096" height="174.025"/>
		</defs>
		<clipPath id="SVGID_00000074424097686567617040000015925778234095576748_">
			<use xlink:href="#SVGID_00000008134520009857583480000010233915192989017017_"  style="overflow:visible;"/>
		</clipPath>
		<g style="clip-path:url(#SVGID_00000074424097686567617040000015925778234095576748_);">
			<polygon style="fill:#D44868;" points="747.689,137.187 714.239,156.499 680.79,175.811 750.577,216.102 784.026,196.79 
				817.476,177.479 			"/>
			<polygon style="fill:#C73C5B;" points="680.788,175.774 680.789,197.835 680.788,219.897 750.574,260.189 750.574,238.126 
				750.575,216.063 			"/>
			<polygon style="fill:#BA304F;" points="750.575,216.053 750.575,238.116 750.575,260.179 817.476,221.553 817.476,199.491 
				817.476,177.428 			"/>
		</g>
	</g>
	<g>
		<defs>
			<rect id="SVGID_00000157290887084355013290000006720276900503979137_" x="638.836" y="-46.5" width="111.164" height="227.773"/>
		</defs>
		<clipPath id="SVGID_00000082348795463990082750000005173892956169812883_">
			<use xlink:href="#SVGID_00000157290887084355013290000006720276900503979137_"  style="overflow:visible;"/>
		</clipPath>
		<g style="clip-path:url(#SVGID_00000082348795463990082750000005173892956169812883_);">
			<polygon style="fill:#FF9E4A;" points="746.519,23.601 713.068,42.914 679.619,62.224 812.771,139.1 846.22,119.789 
				879.669,100.476 			"/>
			<polygon style="fill:#FF8E3D;" points="679.619,62.195 679.619,84.257 679.619,106.32 812.771,183.193 812.771,161.133 
				812.771,139.07 			"/>
			<polygon style="fill:#FF7F40;" points="812.771,139.035 812.773,161.098 812.771,183.158 879.673,144.535 879.673,122.473 
				879.671,100.41 			"/>
		</g>
	</g>
	<g>
		<defs>
			<rect id="SVGID_00000155135669110256493570000012531512121807798198_" x="352.283" width="223.906" height="77.398"/>
		</defs>
		<clipPath id="SVGID_00000142889191079530136950000015491496015143636896_">
			<use xlink:href="#SVGID_00000155135669110256493570000012531512121807798198_"  style="overflow:visible;"/>
		</clipPath>
		<g style="clip-path:url(#SVGID_00000142889191079530136950000015491496015143636896_);">
			<polygon style="fill:#FF9E4A;" points="430.157,-87.264 396.708,-67.953 363.259,-48.641 496.411,28.234 529.86,8.922 
				563.31,-10.389 			"/>
			<polygon style="fill:#FF8E3D;" points="363.259,-48.671 363.259,-26.609 363.259,-4.546 496.411,72.329 496.411,50.266 
				496.411,28.204 			"/>
			<polygon style="fill:#FF7F40;" points="496.411,28.169 496.413,50.231 496.411,72.294 563.314,33.668 563.314,11.606 
				563.312,-10.456 			"/>
		</g>
	</g>
	<g>
		<defs>
			<rect id="SVGID_00000046313471196811076270000005989190350301337239_" x="143.783" width="178.5" height="103.397"/>
		</defs>
		<clipPath id="SVGID_00000021086443214962539380000006830023506481921179_">
			<use xlink:href="#SVGID_00000046313471196811076270000005989190350301337239_"  style="overflow:visible;"/>
		</clipPath>
		<g style="clip-path:url(#SVGID_00000021086443214962539380000006830023506481921179_);">
			<polygon style="fill:#6592CC;" points="319.108,-5.486 185.96,71.387 152.511,52.075 285.657,-24.798 			"/>
			<polygon style="fill:#5B7CB8;" points="185.961,93.511 152.511,74.199 152.511,52.138 185.961,71.451 			"/>
			<polygon style="fill:#5275A3;" points="319.107,16.636 185.956,93.511 185.956,71.45 319.107,-5.425 			"/>
		</g>
	</g>
</g>
</svg>
