<?xml version="1.0" encoding="UTF-8" standalone="no"?>
<svg
   width="744.16669"
   zoomAndPan="magnify"
   viewBox="0 0 558.12502 256.55795"
   height="342.07727"
   preserveAspectRatio="xMidYMid"
   version="1.2"
   id="svg186"
   sodipodi:docname="telepresença (1).svg"
   inkscape:version="1.3.2 (091e20e, 2023-11-25, custom)"
   xmlns:inkscape="http://www.inkscape.org/namespaces/inkscape"
   xmlns:sodipodi="http://sodipodi.sourceforge.net/DTD/sodipodi-0.dtd"
   xmlns="http://www.w3.org/2000/svg"
   xmlns:svg="http://www.w3.org/2000/svg">
  <sodipodi:namedview
     id="namedview186"
     pagecolor="#ffffff"
     bordercolor="#000000"
     borderopacity="0.25"
     inkscape:showpageshadow="2"
     inkscape:pageopacity="0.0"
     inkscape:pagecheckerboard="0"
     inkscape:deskcolor="#d1d1d1"
     inkscape:zoom="0.69479167"
     inkscape:cx="362.69865"
     inkscape:cy="169.11544"
     inkscape:window-width="1920"
     inkscape:window-height="1009"
     inkscape:window-x="-8"
     inkscape:window-y="126"
     inkscape:window-maximized="1"
     inkscape:current-layer="svg186" />
  <defs
     id="defs1" />
  <g
     style="fill:#000000;fill-opacity:1"
     id="g2"
     transform="translate(-447.91016,-278.49892)">
    <g
       transform="translate(631.01499,299.01455)"
       id="g1">
      <path
         style="stroke:none"
         d="m 8.3125,-2.9375 c 0.707031,0 1.550781,-0.15625 2.53125,-0.46875 v 3 c -1,0.4453125 -2.230469,0.671875 -3.6875,0.671875 -1.605469,0 -2.777344,-0.40625 -3.515625,-1.21875 -0.730469,-0.8125 -1.09375,-2.03125 -1.09375,-3.65625 V -11.71875 H 0.625 v -1.703125 L 2.828125,-14.765625 4,-17.875 h 2.5625 v 3.140625 h 4.125 v 3.015625 h -4.125 v 7.109375 c 0,0.574219 0.160156,0.996094 0.484375,1.265625 0.320313,0.273438 0.742187,0.40625 1.265625,0.40625 z m 0,0"
         id="path1" />
    </g>
  </g>
  <g
     style="fill:#000000;fill-opacity:1"
     id="g4"
     transform="translate(-447.91016,-278.49892)">
    <g
       transform="translate(642.73012,299.01455)"
       id="g3">
      <path
         style="stroke:none"
         d="m 8.21875,-12.15625 c -0.855469,0 -1.527344,0.273438 -2.015625,0.8125 -0.480469,0.542969 -0.757813,1.308594 -0.828125,2.296875 h 5.640625 C 11.003906,-10.035156 10.75,-10.800781 10.25,-11.34375 c -0.5,-0.539062 -1.179688,-0.8125 -2.03125,-0.8125 z m 0.5625,12.421875 c -2.375,0 -4.230469,-0.65625 -5.5625,-1.96875 -1.335938,-1.3125 -2,-3.164063 -2,-5.5625 0,-2.46875 0.613281,-4.375 1.84375,-5.71875 1.238281,-1.351563 2.945312,-2.03125 5.125,-2.03125 2.082031,0 3.703125,0.59375 4.859375,1.78125 1.164063,1.1875 1.75,2.828125 1.75,4.921875 V -6.375 H 5.28125 c 0.050781,1.148438 0.390625,2.042969 1.015625,2.6875 0.632813,0.636719 1.523437,0.953125 2.671875,0.953125 0.882812,0 1.722656,-0.085937 2.515625,-0.265625 0.789063,-0.1875 1.617187,-0.484375 2.484375,-0.890625 V -0.78125 C 13.257812,-0.425781 12.503906,-0.164062 11.703125,0 10.898438,0.175781 9.925781,0.265625 8.78125,0.265625 Z m 0,0"
         id="path2" />
    </g>
  </g>
  <g
     style="fill:#000000;fill-opacity:1"
     id="g6"
     transform="translate(-447.91016,-278.49892)">
    <g
       transform="translate(658.67535,299.01455)"
       id="g5">
      <path
         style="stroke:none"
         d="M 6.125,0 H 2.109375 V -20.515625 H 6.125 Z m 0,0"
         id="path4" />
    </g>
  </g>
  <g
     style="fill:#000000;fill-opacity:1"
     id="g8"
     transform="translate(-447.91016,-278.49892)">
    <g
       transform="translate(666.91152,299.01455)"
       id="g7">
      <path
         style="stroke:none"
         d="m 8.21875,-12.15625 c -0.855469,0 -1.527344,0.273438 -2.015625,0.8125 -0.480469,0.542969 -0.757813,1.308594 -0.828125,2.296875 h 5.640625 C 11.003906,-10.035156 10.75,-10.800781 10.25,-11.34375 c -0.5,-0.539062 -1.179688,-0.8125 -2.03125,-0.8125 z m 0.5625,12.421875 c -2.375,0 -4.230469,-0.65625 -5.5625,-1.96875 -1.335938,-1.3125 -2,-3.164063 -2,-5.5625 0,-2.46875 0.613281,-4.375 1.84375,-5.71875 1.238281,-1.351563 2.945312,-2.03125 5.125,-2.03125 2.082031,0 3.703125,0.59375 4.859375,1.78125 1.164063,1.1875 1.75,2.828125 1.75,4.921875 V -6.375 H 5.28125 c 0.050781,1.148438 0.390625,2.042969 1.015625,2.6875 0.632813,0.636719 1.523437,0.953125 2.671875,0.953125 0.882812,0 1.722656,-0.085937 2.515625,-0.265625 0.789063,-0.1875 1.617187,-0.484375 2.484375,-0.890625 V -0.78125 C 13.257812,-0.425781 12.503906,-0.164062 11.703125,0 10.898438,0.175781 9.925781,0.265625 8.78125,0.265625 Z m 0,0"
         id="path6" />
    </g>
  </g>
  <g
     style="fill:#000000;fill-opacity:1"
     id="g10"
     transform="translate(-447.91016,-278.49892)">
    <g
       transform="translate(682.85675,299.01455)"
       id="g9">
      <path
         style="stroke:none"
         d="M 10.203125,0.265625 C 8.472656,0.265625 7.113281,-0.363281 6.125,-1.625 H 5.921875 C 6.054688,-0.394531 6.125,0.316406 6.125,0.515625 v 5.96875 H 2.109375 v -21.21875 H 5.375 l 0.578125,1.90625 H 6.125 c 0.945312,-1.457031 2.34375,-2.1875 4.1875,-2.1875 1.738281,0 3.097656,0.671875 4.078125,2.015625 0.988281,1.34375 1.484375,3.214844 1.484375,5.609375 0,1.574219 -0.234375,2.9375 -0.703125,4.09375 -0.460937,1.15625 -1.117187,2.042969 -1.96875,2.65625 -0.84375,0.6054688 -1.84375,0.90625 -3,0.90625 z m -1.1875,-12.0625 c -0.992187,0 -1.714844,0.308594 -2.171875,0.921875 -0.460938,0.605469 -0.699219,1.609375 -0.71875,3.015625 v 0.4375 c 0,1.585937 0.234375,2.71875 0.703125,3.40625 C 7.304688,-3.335938 8.054688,-3 9.078125,-3 c 1.789063,0 2.6875,-1.484375 2.6875,-4.453125 0,-1.445313 -0.226563,-2.53125 -0.671875,-3.25 -0.4375,-0.726563 -1.132812,-1.09375 -2.078125,-1.09375 z m 0,0"
         id="path8" />
    </g>
  </g>
  <g
     style="fill:#000000;fill-opacity:1"
     id="g12"
     transform="translate(-447.91016,-278.49892)">
    <g
       transform="translate(699.93527,299.01455)"
       id="g11">
      <path
         style="stroke:none"
         d="m 10.34375,-15.015625 c 0.539062,0 0.988281,0.04297 1.34375,0.125 L 11.390625,-11.125 c -0.324219,-0.09375 -0.71875,-0.140625 -1.1875,-0.140625 -1.28125,0 -2.28125,0.335937 -3,1 C 6.484375,-9.609375 6.125,-8.6875 6.125,-7.5 V 0 H 2.109375 V -14.734375 H 5.15625 l 0.59375,2.46875 h 0.203125 c 0.445313,-0.820313 1.0625,-1.484375 1.84375,-1.984375 0.78125,-0.507812 1.628906,-0.765625 2.546875,-0.765625 z m 0,0"
         id="path10" />
    </g>
  </g>
  <g
     style="fill:#000000;fill-opacity:1"
     id="g14"
     transform="translate(-447.91016,-278.49892)">
    <g
       transform="translate(712.19069,299.01455)"
       id="g13">
      <path
         style="stroke:none"
         d="m 8.21875,-12.15625 c -0.855469,0 -1.527344,0.273438 -2.015625,0.8125 -0.480469,0.542969 -0.757813,1.308594 -0.828125,2.296875 h 5.640625 C 11.003906,-10.035156 10.75,-10.800781 10.25,-11.34375 c -0.5,-0.539062 -1.179688,-0.8125 -2.03125,-0.8125 z m 0.5625,12.421875 c -2.375,0 -4.230469,-0.65625 -5.5625,-1.96875 -1.335938,-1.3125 -2,-3.164063 -2,-5.5625 0,-2.46875 0.613281,-4.375 1.84375,-5.71875 1.238281,-1.351563 2.945312,-2.03125 5.125,-2.03125 2.082031,0 3.703125,0.59375 4.859375,1.78125 1.164063,1.1875 1.75,2.828125 1.75,4.921875 V -6.375 H 5.28125 c 0.050781,1.148438 0.390625,2.042969 1.015625,2.6875 0.632813,0.636719 1.523437,0.953125 2.671875,0.953125 0.882812,0 1.722656,-0.085937 2.515625,-0.265625 0.789063,-0.1875 1.617187,-0.484375 2.484375,-0.890625 V -0.78125 C 13.257812,-0.425781 12.503906,-0.164062 11.703125,0 10.898438,0.175781 9.925781,0.265625 8.78125,0.265625 Z m 0,0"
         id="path12" />
    </g>
  </g>
  <g
     style="fill:#000000;fill-opacity:1"
     id="g16"
     transform="translate(-447.91016,-278.49892)">
    <g
       transform="translate(728.13591,299.01455)"
       id="g15">
      <path
         style="stroke:none"
         d="m 12.390625,-4.375 c 0,1.511719 -0.527344,2.664062 -1.578125,3.453125 -1.054688,0.792969 -2.621094,1.1875 -4.703125,1.1875 -1.074219,0 -1.992187,-0.074219 -2.75,-0.21875 -0.75,-0.1445312 -1.460937,-0.359375 -2.125,-0.640625 v -3.328125 c 0.75,0.355469 1.59375,0.652344 2.53125,0.890625 0.9375,0.242188 1.757813,0.359375 2.46875,0.359375 1.457031,0 2.1875,-0.421875 2.1875,-1.265625 0,-0.320312 -0.101563,-0.582031 -0.296875,-0.78125 -0.1875,-0.195312 -0.523438,-0.421875 -1,-0.671875 -0.46875,-0.25 -1.101562,-0.539063 -1.890625,-0.875 -1.136719,-0.46875 -1.96875,-0.90625 -2.5,-1.3125 -0.53125,-0.40625 -0.917969,-0.867187 -1.15625,-1.390625 -0.242187,-0.519531 -0.359375,-1.164062 -0.359375,-1.9375 0,-1.3125 0.503906,-2.320312 1.515625,-3.03125 1.019531,-0.71875 2.457031,-1.078125 4.3125,-1.078125 1.78125,0 3.507813,0.386719 5.1875,1.15625 l -1.21875,2.90625 c -0.730469,-0.320313 -1.417969,-0.582031 -2.0625,-0.78125 -0.648437,-0.195313 -1.304687,-0.296875 -1.96875,-0.296875 -1.1875,0 -1.78125,0.320312 -1.78125,0.953125 0,0.367187 0.191406,0.679687 0.578125,0.9375 0.382812,0.261719 1.222656,0.652344 2.515625,1.171875 C 9.441406,-8.5 10.28125,-8.0625 10.8125,-7.65625 11.351562,-7.25 11.75,-6.78125 12,-6.25 c 0.257812,0.523438 0.390625,1.148438 0.390625,1.875 z m 0,0"
         id="path14" />
    </g>
  </g>
  <g
     style="fill:#000000;fill-opacity:1"
     id="g18"
     transform="translate(-447.91016,-278.49892)">
    <g
       transform="translate(741.55098,299.01455)"
       id="g17">
      <path
         style="stroke:none"
         d="m 8.21875,-12.15625 c -0.855469,0 -1.527344,0.273438 -2.015625,0.8125 -0.480469,0.542969 -0.757813,1.308594 -0.828125,2.296875 h 5.640625 C 11.003906,-10.035156 10.75,-10.800781 10.25,-11.34375 c -0.5,-0.539062 -1.179688,-0.8125 -2.03125,-0.8125 z m 0.5625,12.421875 c -2.375,0 -4.230469,-0.65625 -5.5625,-1.96875 -1.335938,-1.3125 -2,-3.164063 -2,-5.5625 0,-2.46875 0.613281,-4.375 1.84375,-5.71875 1.238281,-1.351563 2.945312,-2.03125 5.125,-2.03125 2.082031,0 3.703125,0.59375 4.859375,1.78125 1.164063,1.1875 1.75,2.828125 1.75,4.921875 V -6.375 H 5.28125 c 0.050781,1.148438 0.390625,2.042969 1.015625,2.6875 0.632813,0.636719 1.523437,0.953125 2.671875,0.953125 0.882812,0 1.722656,-0.085937 2.515625,-0.265625 0.789063,-0.1875 1.617187,-0.484375 2.484375,-0.890625 V -0.78125 C 13.257812,-0.425781 12.503906,-0.164062 11.703125,0 10.898438,0.175781 9.925781,0.265625 8.78125,0.265625 Z m 0,0"
         id="path16" />
    </g>
  </g>
  <g
     style="fill:#000000;fill-opacity:1"
     id="g20"
     transform="translate(-447.91016,-278.49892)">
    <g
       transform="translate(757.49621,299.01455)"
       id="g19">
      <path
         style="stroke:none"
         d="M 15.71875,0 H 11.6875 v -8.609375 c 0,-1.0625 -0.1875,-1.859375 -0.5625,-2.390625 -0.375,-0.53125 -0.976562,-0.796875 -1.796875,-0.796875 -1.125,0 -1.945313,0.375 -2.453125,1.125 -0.5,0.75 -0.75,1.996094 -0.75,3.734375 V 0 H 2.109375 V -14.734375 H 5.1875 l 0.53125,1.875 h 0.234375 c 0.445313,-0.707031 1.0625,-1.242187 1.84375,-1.609375 0.789063,-0.363281 1.6875,-0.546875 2.6875,-0.546875 1.707031,0 3.003906,0.464844 3.890625,1.390625 0.894531,0.929688 1.34375,2.265625 1.34375,4.015625 z m 0,0"
         id="path18" />
    </g>
  </g>
  <g
     style="fill:#000000;fill-opacity:1"
     id="g22"
     transform="translate(-447.91016,-278.49892)">
    <g
       transform="translate(775.23362,299.01455)"
       id="g21">
      <path
         style="stroke:none"
         d="m 8.09375,0.265625 c -4.585938,0 -6.875,-2.519531 -6.875,-7.5625 0,-2.5 0.617188,-4.410156 1.859375,-5.734375 1.25,-1.320312 3.039063,-1.984375 5.375,-1.984375 1.707031,0 3.234375,0.335937 4.578125,1 l -1.171875,3.109375 c -0.636719,-0.25 -1.230469,-0.453125 -1.78125,-0.609375 -0.542969,-0.164063 -1.085937,-0.25 -1.625,-0.25 -2.09375,0 -3.140625,1.484375 -3.140625,4.453125 0,2.875 1.046875,4.3125 3.140625,4.3125 0.769531,0 1.484375,-0.097656 2.140625,-0.296875 0.664062,-0.207031 1.328125,-0.53125 1.984375,-0.96875 v 3.4375 c -0.648437,0.40625 -1.304687,0.6875 -1.96875,0.84375 -0.667969,0.164063 -1.507813,0.25 -2.515625,0.25 z m 0,0"
         id="path20" />
    </g>
  </g>
  <g
     style="fill:#000000;fill-opacity:1"
     id="g24"
     transform="translate(-447.91016,-278.49892)">
    <g
       transform="translate(789.10993,299.01455)"
       id="g23">
      <path
         style="stroke:none"
         d="m 8.21875,-12.15625 c -0.855469,0 -1.527344,0.273438 -2.015625,0.8125 -0.480469,0.542969 -0.757813,1.308594 -0.828125,2.296875 h 5.640625 C 11.003906,-10.035156 10.75,-10.800781 10.25,-11.34375 c -0.5,-0.539062 -1.179688,-0.8125 -2.03125,-0.8125 z m 0.5625,12.421875 c -2.375,0 -4.230469,-0.65625 -5.5625,-1.96875 -1.335938,-1.3125 -2,-3.164063 -2,-5.5625 0,-2.46875 0.613281,-4.375 1.84375,-5.71875 1.238281,-1.351563 2.945312,-2.03125 5.125,-2.03125 2.082031,0 3.703125,0.59375 4.859375,1.78125 1.164063,1.1875 1.75,2.828125 1.75,4.921875 V -6.375 H 5.28125 c 0.050781,1.148438 0.390625,2.042969 1.015625,2.6875 0.632813,0.636719 1.523437,0.953125 2.671875,0.953125 0.882812,0 1.722656,-0.085937 2.515625,-0.265625 0.789063,-0.1875 1.617187,-0.484375 2.484375,-0.890625 V -0.78125 C 13.257812,-0.425781 12.503906,-0.164062 11.703125,0 10.898438,0.175781 9.925781,0.265625 8.78125,0.265625 Z m 0,0"
         id="path22" />
    </g>
  </g>
  <g
     style="fill:#000000;fill-opacity:1"
     id="g26"
     transform="translate(-447.91016,-278.49892)">
    <g
       transform="translate(499.7947,437.12385)"
       id="g25">
      <path
         style="stroke:none"
         d="M 4.78125,0 0,-12.5625 h 3.578125 l 2.4375,7.15625 c 0.257813,0.90625 0.425781,1.765625 0.5,2.578125 h 0.0625 C 6.617188,-3.546875 6.789062,-4.40625 7.09375,-5.40625 L 9.5,-12.5625 h 3.578125 L 8.296875,0 Z m 0,0"
         id="path24" />
    </g>
  </g>
  <g
     style="fill:#000000;fill-opacity:1"
     id="g28"
     transform="translate(-447.91016,-278.49892)">
    <g
       transform="translate(512.87375,437.12385)"
       id="g27">
      <path
         style="stroke:none"
         d="m 1.65625,-15.796875 c 0,-1.113281 0.617188,-1.671875 1.859375,-1.671875 1.238281,0 1.859375,0.558594 1.859375,1.671875 0,0.53125 -0.15625,0.949219 -0.46875,1.25 -0.304688,0.292969 -0.765625,0.4375 -1.390625,0.4375 -1.242187,0 -1.859375,-0.5625 -1.859375,-1.6875 z M 5.21875,0 H 1.796875 V -12.5625 H 5.21875 Z m 0,0"
         id="path26" />
    </g>
  </g>
  <g
     style="fill:#000000;fill-opacity:1"
     id="g30"
     transform="translate(-447.91016,-278.49892)">
    <g
       transform="translate(519.89041,437.12385)"
       id="g29">
      <path
         style="stroke:none"
         d="M 4.78125,0 0,-12.5625 h 3.578125 l 2.4375,7.15625 c 0.257813,0.90625 0.425781,1.765625 0.5,2.578125 h 0.0625 C 6.617188,-3.546875 6.789062,-4.40625 7.09375,-5.40625 L 9.5,-12.5625 h 3.578125 L 8.296875,0 Z m 0,0"
         id="path28" />
    </g>
  </g>
  <g
     style="fill:#000000;fill-opacity:1"
     id="g32"
     transform="translate(-447.91016,-278.49892)">
    <g
       transform="translate(532.96946,437.12385)"
       id="g31">
      <path
         style="stroke:none"
         d="m 1.65625,-15.796875 c 0,-1.113281 0.617188,-1.671875 1.859375,-1.671875 1.238281,0 1.859375,0.558594 1.859375,1.671875 0,0.53125 -0.15625,0.949219 -0.46875,1.25 -0.304688,0.292969 -0.765625,0.4375 -1.390625,0.4375 -1.242187,0 -1.859375,-0.5625 -1.859375,-1.6875 z M 5.21875,0 H 1.796875 V -12.5625 H 5.21875 Z m 0,0"
         id="path30" />
    </g>
  </g>
  <g
     style="fill:#000000;fill-opacity:1"
     id="g34"
     transform="translate(-447.91016,-278.49892)">
    <g
       transform="translate(539.98612,437.12385)"
       id="g33">
      <path
         style="stroke:none"
         d="m 5.765625,0.21875 c -1.46875,0 -2.625,-0.570312 -3.46875,-1.71875 -0.84375,-1.144531 -1.265625,-2.726562 -1.265625,-4.75 0,-2.0625 0.425781,-3.664062 1.28125,-4.8125 0.863281,-1.15625 2.046875,-1.734375 3.546875,-1.734375 1.582031,0 2.789063,0.617187 3.625,1.84375 H 9.59375 c -0.179688,-0.9375 -0.265625,-1.769531 -0.265625,-2.5 v -4.015625 h 3.4375 V 0 h -2.625 L 9.484375,-1.625 H 9.328125 C 8.554688,-0.394531 7.367188,0.21875 5.765625,0.21875 Z M 6.96875,-2.5 c 0.875,0 1.515625,-0.253906 1.921875,-0.765625 0.414063,-0.507813 0.640625,-1.375 0.671875,-2.59375 v -0.375 C 9.5625,-7.578125 9.351562,-8.539062 8.9375,-9.125 8.53125,-9.707031 7.859375,-10 6.921875,-10 6.148438,-10 5.550781,-9.675781 5.125,-9.03125 4.707031,-8.382812 4.5,-7.441406 4.5,-6.203125 c 0,1.230469 0.210938,2.15625 0.640625,2.78125 C 5.566406,-2.804688 6.175781,-2.5 6.96875,-2.5 Z m 0,0"
         id="path32" />
    </g>
  </g>
  <g
     style="fill:#000000;fill-opacity:1"
     id="g36"
     transform="translate(-447.91016,-278.49892)">
    <g
       transform="translate(554.53586,437.12385)"
       id="g35">
      <path
         style="stroke:none"
         d="M 13.390625,0 H 9.96875 v -7.328125 c 0,-0.90625 -0.164062,-1.582031 -0.484375,-2.03125 -0.324219,-0.457031 -0.839844,-0.6875 -1.546875,-0.6875 -0.960938,0 -1.652344,0.324219 -2.078125,0.96875 C 5.429688,-8.441406 5.21875,-7.382812 5.21875,-5.90625 V 0 H 1.796875 V -12.5625 H 4.40625 l 0.46875,1.609375 h 0.1875 c 0.382812,-0.601563 0.910156,-1.0625 1.578125,-1.375 0.664063,-0.3125 1.425781,-0.46875 2.28125,-0.46875 1.46875,0 2.578125,0.398437 3.328125,1.1875 0.757812,0.792969 1.140625,1.933594 1.140625,3.421875 z m 0,0"
         id="path34" />
    </g>
  </g>
  <g
     style="fill:#000000;fill-opacity:1"
     id="g38"
     transform="translate(-447.91016,-278.49892)">
    <g
       transform="translate(569.64694,437.12385)"
       id="g37">
      <path
         style="stroke:none"
         d="m 7,-10.359375 c -0.730469,0 -1.304688,0.234375 -1.71875,0.703125 -0.40625,0.460938 -0.640625,1.109375 -0.703125,1.953125 h 4.8125 C 9.367188,-8.546875 9.144531,-9.195312 8.71875,-9.65625 8.300781,-10.125 7.726562,-10.359375 7,-10.359375 Z M 7.484375,0.21875 c -2.023437,0 -3.605469,-0.554688 -4.75,-1.671875 C 1.597656,-2.566406 1.03125,-4.144531 1.03125,-6.1875 c 0,-2.101562 0.523438,-3.726562 1.578125,-4.875 1.050781,-1.15625 2.503906,-1.734375 4.359375,-1.734375 1.78125,0 3.160156,0.507813 4.140625,1.515625 0.988281,1.011719 1.484375,2.40625 1.484375,4.1875 v 1.671875 H 4.5 c 0.039062,0.96875 0.328125,1.730469 0.859375,2.28125 0.539063,0.542969 1.300781,0.8125 2.28125,0.8125 0.75,0 1.460937,-0.078125 2.140625,-0.234375 0.675781,-0.15625 1.378906,-0.40625 2.109375,-0.75 v 2.65625 C 11.296875,-0.363281 10.65625,-0.144531 9.96875,0 9.289062,0.144531 8.460938,0.21875 7.484375,0.21875 Z m 0,0"
         id="path36" />
    </g>
  </g>
  <g
     style="fill:#000000;fill-opacity:1"
     id="g40"
     transform="translate(-447.91016,-278.49892)">
    <g
       transform="translate(583.23119,437.12385)"
       id="g39">
      <path
         style="stroke:none"
         d="m 10.5625,-3.734375 c 0,1.292969 -0.449219,2.277344 -1.34375,2.953125 -0.898438,0.667969 -2.234375,1 -4.015625,1 -0.917969,0 -1.699219,-0.0625 -2.34375,-0.1875 C 2.210938,-0.0820312 1.613281,-0.257812 1.0625,-0.5 v -2.828125 c 0.632812,0.292969 1.347656,0.542969 2.140625,0.75 0.800781,0.199219 1.503906,0.296875 2.109375,0.296875 1.238281,0 1.859375,-0.359375 1.859375,-1.078125 0,-0.269531 -0.085937,-0.488281 -0.25,-0.65625 -0.15625,-0.164063 -0.4375,-0.351563 -0.84375,-0.5625 -0.40625,-0.21875 -0.949219,-0.46875 -1.625,-0.75 -0.960937,-0.40625 -1.667969,-0.78125 -2.125,-1.125 -0.449219,-0.34375 -0.777344,-0.738281 -0.984375,-1.1875 -0.210938,-0.445313 -0.3125,-0.992187 -0.3125,-1.640625 0,-1.125 0.429688,-1.988281 1.296875,-2.59375 0.863281,-0.613281 2.09375,-0.921875 3.6875,-0.921875 1.507813,0 2.976563,0.335937 4.40625,1 l -1.03125,2.46875 C 8.765625,-9.597656 8.175781,-9.816406 7.625,-9.984375 7.082031,-10.160156 6.523438,-10.25 5.953125,-10.25 c -1.011719,0 -1.515625,0.273438 -1.515625,0.8125 0,0.3125 0.160156,0.585938 0.484375,0.8125 0.320313,0.21875 1.035156,0.546875 2.140625,0.984375 0.976562,0.398437 1.695312,0.765625 2.15625,1.109375 0.457031,0.34375 0.796875,0.746094 1.015625,1.203125 0.21875,0.449219 0.328125,0.980469 0.328125,1.59375 z m 0,0"
         id="path38" />
    </g>
  </g>
  <g
     style="fill:#000000;fill-opacity:1"
     id="g42"
     transform="translate(-447.91016,-278.49892)">
    <g
       transform="translate(594.65992,437.12385)"
       id="g41">
      <path
         style="stroke:none"
         d="m 10.5625,-3.734375 c 0,1.292969 -0.449219,2.277344 -1.34375,2.953125 -0.898438,0.667969 -2.234375,1 -4.015625,1 -0.917969,0 -1.699219,-0.0625 -2.34375,-0.1875 C 2.210938,-0.0820312 1.613281,-0.257812 1.0625,-0.5 v -2.828125 c 0.632812,0.292969 1.347656,0.542969 2.140625,0.75 0.800781,0.199219 1.503906,0.296875 2.109375,0.296875 1.238281,0 1.859375,-0.359375 1.859375,-1.078125 0,-0.269531 -0.085937,-0.488281 -0.25,-0.65625 -0.15625,-0.164063 -0.4375,-0.351563 -0.84375,-0.5625 -0.40625,-0.21875 -0.949219,-0.46875 -1.625,-0.75 -0.960937,-0.40625 -1.667969,-0.78125 -2.125,-1.125 -0.449219,-0.34375 -0.777344,-0.738281 -0.984375,-1.1875 -0.210938,-0.445313 -0.3125,-0.992187 -0.3125,-1.640625 0,-1.125 0.429688,-1.988281 1.296875,-2.59375 0.863281,-0.613281 2.09375,-0.921875 3.6875,-0.921875 1.507813,0 2.976563,0.335937 4.40625,1 l -1.03125,2.46875 C 8.765625,-9.597656 8.175781,-9.816406 7.625,-9.984375 7.082031,-10.160156 6.523438,-10.25 5.953125,-10.25 c -1.011719,0 -1.515625,0.273438 -1.515625,0.8125 0,0.3125 0.160156,0.585938 0.484375,0.8125 0.320313,0.21875 1.035156,0.546875 2.140625,0.984375 0.976562,0.398437 1.695312,0.765625 2.15625,1.109375 0.457031,0.34375 0.796875,0.746094 1.015625,1.203125 0.21875,0.449219 0.328125,0.980469 0.328125,1.59375 z m 0,0"
         id="path40" />
    </g>
  </g>
  <g
     style="fill:#000000;fill-opacity:1"
     id="g44"
     transform="translate(-447.91016,-278.49892)">
    <g
       transform="translate(449.22604,530.00999)"
       id="g43">
      <path
         style="stroke:none"
         d="m 7.03125,-11.421875 c 1.476562,0 2.625,0.507813 3.4375,1.515625 0.820312,1.011719 1.234375,2.4375 1.234375,4.28125 0,1.84375 -0.414063,3.277344 -1.234375,4.296875 -0.824219,1.023437 -1.96875,1.53125 -3.4375,1.53125 -0.730469,0 -1.398438,-0.1367188 -2,-0.40625 -0.605469,-0.269531 -1.117188,-0.6875 -1.53125,-1.25 H 3.390625 L 3.03125,0 H 1.8125 V -15.953125 H 3.5 v 3.875 c 0,0.867187 -0.027344,1.648437 -0.078125,2.34375 H 3.5 c 0.800781,-1.125 1.976562,-1.6875 3.53125,-1.6875 z M 6.78125,-10 C 5.625,-10 4.785156,-9.664062 4.265625,-9 3.753906,-8.332031 3.5,-7.207031 3.5,-5.625 c 0,1.574219 0.265625,2.703125 0.796875,3.390625 0.53125,0.679687 1.375,1.015625 2.53125,1.015625 1.039063,0 1.816406,-0.378906 2.328125,-1.140625 C 9.675781,-3.117188 9.9375,-4.21875 9.9375,-5.65625 9.9375,-7.113281 9.675781,-8.203125 9.15625,-8.921875 8.644531,-9.640625 7.851562,-10 6.78125,-10 Z m 0,0"
         id="path42" />
    </g>
  </g>
  <g
     style="fill:#000000;fill-opacity:1"
     id="g46"
     transform="translate(-447.91016,-278.49892)">
    <g
       transform="translate(462.08751,530.00999)"
       id="g45">
      <path
         style="stroke:none"
         d="m 6.9375,-11.4375 c 0.5,0 0.945312,0.03906 1.34375,0.109375 l -0.234375,1.59375 c -0.46875,-0.101563 -0.882813,-0.15625 -1.234375,-0.15625 -0.917969,0 -1.699219,0.371094 -2.34375,1.109375 C 3.820312,-8.050781 3.5,-7.132812 3.5,-6.03125 V 0 H 1.8125 V -11.234375 H 3.203125 L 3.40625,-9.15625 h 0.078125 c 0.414063,-0.726562 0.914063,-1.289062 1.5,-1.6875 0.59375,-0.394531 1.242187,-0.59375 1.953125,-0.59375 z m 0,0"
         id="path44" />
    </g>
  </g>
  <g
     style="fill:#000000;fill-opacity:1"
     id="g48"
     transform="translate(-447.91016,-278.49892)">
    <g
       transform="translate(470.65499,530.00999)"
       id="g47">
      <path
         style="stroke:none"
         d="m 6.546875,0.203125 c -1.65625,0 -2.96875,-0.503906 -3.9375,-1.515625 -0.960937,-1.007812 -1.4375,-2.414062 -1.4375,-4.21875 0,-1.8125 0.445313,-3.25 1.34375,-4.3125 0.894531,-1.0625 2.09375,-1.59375 3.59375,-1.59375 1.40625,0 2.519531,0.464844 3.34375,1.390625 0.820313,0.917969 1.234375,2.136719 1.234375,3.65625 V -5.3125 h -7.75 c 0.039062,1.324219 0.375,2.328125 1,3.015625 0.632812,0.679687 1.523438,1.015625 2.671875,1.015625 1.207031,0 2.40625,-0.253906 3.59375,-0.765625 v 1.53125 c -0.605469,0.25 -1.179687,0.4335938 -1.71875,0.546875 -0.53125,0.113281 -1.179687,0.171875 -1.9375,0.171875 z M 6.09375,-10.015625 c -0.90625,0 -1.632812,0.296875 -2.171875,0.890625 -0.53125,0.585938 -0.84375,1.390625 -0.9375,2.421875 h 5.875 c 0,-1.070313 -0.242187,-1.890625 -0.71875,-2.453125 -0.480469,-0.570312 -1.164063,-0.859375 -2.046875,-0.859375 z m 0,0"
         id="path46" />
    </g>
  </g>
  <g
     style="fill:#000000;fill-opacity:1"
     id="g50"
     transform="translate(-447.91016,-278.49892)">
    <g
       transform="translate(482.43016,530.00999)"
       id="g49">
      <path
         style="stroke:none"
         d="M 8.71875,0 8.375,-1.59375 H 8.296875 c -0.5625,0.699219 -1.125,1.171875 -1.6875,1.421875 -0.554687,0.25 -1.246094,0.375 -2.078125,0.375 -1.117188,0 -1.992188,-0.2851562 -2.625,-0.859375 -0.625,-0.570312 -0.9375,-1.390625 -0.9375,-2.453125 0,-2.269531 1.8125,-3.457031 5.4375,-3.5625 l 1.90625,-0.0625 V -7.4375 c 0,-0.875 -0.195312,-1.519531 -0.578125,-1.9375 -0.375,-0.425781 -0.980469,-0.640625 -1.8125,-0.640625 -0.9375,0 -1.996094,0.289063 -3.171875,0.859375 l -0.53125,-1.296875 c 0.5625,-0.300781 1.171875,-0.535156 1.828125,-0.703125 0.65625,-0.175781 1.316406,-0.265625 1.984375,-0.265625 1.34375,0 2.335938,0.296875 2.984375,0.890625 0.644531,0.59375 0.96875,1.546875 0.96875,2.859375 V 0 Z M 4.875,-1.203125 c 1.050781,0 1.878906,-0.285156 2.484375,-0.859375 C 7.972656,-2.644531 8.28125,-3.460938 8.28125,-4.515625 V -5.53125 l -1.703125,0.078125 c -1.355469,0.042969 -2.335937,0.25 -2.9375,0.625 C 3.046875,-4.453125 2.75,-3.875 2.75,-3.09375 c 0,0.625 0.179688,1.101562 0.546875,1.421875 0.375,0.3125 0.898437,0.46875 1.578125,0.46875 z m 0,0"
         id="path48" />
    </g>
  </g>
  <g
     style="fill:#000000;fill-opacity:1"
     id="g52"
     transform="translate(-447.91016,-278.49892)">
    <g
       transform="translate(494.10285,530.00999)"
       id="g51">
      <path
         style="stroke:none"
         d="m 9.453125,-1.5 h -0.09375 c -0.78125,1.136719 -1.960937,1.703125 -3.53125,1.703125 -1.46875,0 -2.617187,-0.5 -3.4375,-1.5 -0.8125,-1.007813 -1.21875,-2.441406 -1.21875,-4.296875 0,-1.851562 0.410156,-3.289062 1.234375,-4.3125 0.820312,-1.019531 1.960938,-1.53125 3.421875,-1.53125 1.53125,0 2.703125,0.554688 3.515625,1.65625 h 0.125 l -0.0625,-0.8125 -0.046875,-0.78125 v -4.578125 H 11.0625 V 0 h -1.375 z m -3.40625,0.28125 c 1.164063,0 2.007813,-0.316406 2.53125,-0.953125 0.519531,-0.632813 0.78125,-1.65625 0.78125,-3.0625 V -5.59375 C 9.359375,-7.1875 9.09375,-8.320312 8.5625,-9 c -0.53125,-0.675781 -1.375,-1.015625 -2.53125,-1.015625 -1,0 -1.765625,0.390625 -2.296875,1.171875 -0.53125,0.773438 -0.796875,1.867188 -0.796875,3.28125 0,1.429688 0.257812,2.511719 0.78125,3.25 0.53125,0.730469 1.304688,1.09375 2.328125,1.09375 z m 0,0"
         id="path50" />
    </g>
  </g>
  <g
     style="fill:#000000;fill-opacity:1"
     id="g54"
     transform="translate(-447.91016,-278.49892)">
    <g
       transform="translate(506.96433,530.00999)"
       id="g53">
      <path
         style="stroke:none"
         d="m 5.4375,-1.203125 c 0.300781,0 0.59375,-0.019531 0.875,-0.0625 0.28125,-0.039063 0.5,-0.085937 0.65625,-0.140625 v 1.296875 c -0.179688,0.09375 -0.449219,0.1640625 -0.8125,0.21875 -0.355469,0.0625 -0.679688,0.09375 -0.96875,0.09375 -2.179688,0 -3.265625,-1.144531 -3.265625,-3.4375 v -6.6875 H 0.3125 v -0.8125 l 1.609375,-0.703125 0.71875,-2.40625 H 3.625 v 2.609375 h 3.265625 v 1.3125 H 3.625 v 6.625 c 0,0.679687 0.160156,1.199219 0.484375,1.5625 0.320313,0.355469 0.765625,0.53125 1.328125,0.53125 z m 0,0"
         id="path52" />
    </g>
  </g>
  <g
     style="fill:#000000;fill-opacity:1"
     id="g56"
     transform="translate(-447.91016,-278.49892)">
    <g
       transform="translate(514.37377,530.00999)"
       id="g55">
      <path
         style="stroke:none"
         d="M 9.5,0 V -7.265625 C 9.5,-8.179688 9.289062,-8.863281 8.875,-9.3125 8.457031,-9.769531 7.800781,-10 6.90625,-10 5.726562,-10 4.863281,-9.675781 4.3125,-9.03125 3.769531,-8.382812 3.5,-7.332031 3.5,-5.875 V 0 H 1.8125 V -15.953125 H 3.5 V -11.125 c 0,0.585938 -0.027344,1.0625 -0.078125,1.4375 H 3.53125 c 0.332031,-0.53125 0.804688,-0.953125 1.421875,-1.265625 0.625,-0.3125 1.332031,-0.46875 2.125,-0.46875 1.375,0 2.40625,0.328125 3.09375,0.984375 0.6875,0.648438 1.03125,1.683594 1.03125,3.109375 V 0 Z m 0,0"
         id="path54" />
    </g>
  </g>
  <g
     style="fill:#000000;fill-opacity:1"
     id="g58"
     transform="translate(-447.91016,-278.49892)">
    <g
       transform="translate(587.49555,530.00999)"
       id="g57">
      <path
         style="stroke:none"
         d="m 9.453125,-1.5 h -0.09375 c -0.78125,1.136719 -1.960937,1.703125 -3.53125,1.703125 -1.46875,0 -2.617187,-0.5 -3.4375,-1.5 -0.8125,-1.007813 -1.21875,-2.441406 -1.21875,-4.296875 0,-1.851562 0.410156,-3.289062 1.234375,-4.3125 0.820312,-1.019531 1.960938,-1.53125 3.421875,-1.53125 1.53125,0 2.703125,0.554688 3.515625,1.65625 h 0.125 l -0.0625,-0.8125 -0.046875,-0.78125 v -4.578125 H 11.0625 V 0 h -1.375 z m -3.40625,0.28125 c 1.164063,0 2.007813,-0.316406 2.53125,-0.953125 0.519531,-0.632813 0.78125,-1.65625 0.78125,-3.0625 V -5.59375 C 9.359375,-7.1875 9.09375,-8.320312 8.5625,-9 c -0.53125,-0.675781 -1.375,-1.015625 -2.53125,-1.015625 -1,0 -1.765625,0.390625 -2.296875,1.171875 -0.53125,0.773438 -0.796875,1.867188 -0.796875,3.28125 0,1.429688 0.257812,2.511719 0.78125,3.25 0.53125,0.730469 1.304688,1.09375 2.328125,1.09375 z m 0,0"
         id="path56" />
    </g>
  </g>
  <g
     style="fill:#000000;fill-opacity:1"
     id="g60"
     transform="translate(-447.91016,-278.49892)">
    <g
       transform="translate(600.35703,530.00999)"
       id="g59">
      <path
         style="stroke:none"
         d="m 6.546875,0.203125 c -1.65625,0 -2.96875,-0.503906 -3.9375,-1.515625 -0.960937,-1.007812 -1.4375,-2.414062 -1.4375,-4.21875 0,-1.8125 0.445313,-3.25 1.34375,-4.3125 0.894531,-1.0625 2.09375,-1.59375 3.59375,-1.59375 1.40625,0 2.519531,0.464844 3.34375,1.390625 0.820313,0.917969 1.234375,2.136719 1.234375,3.65625 V -5.3125 h -7.75 c 0.039062,1.324219 0.375,2.328125 1,3.015625 0.632812,0.679687 1.523438,1.015625 2.671875,1.015625 1.207031,0 2.40625,-0.253906 3.59375,-0.765625 v 1.53125 c -0.605469,0.25 -1.179687,0.4335938 -1.71875,0.546875 -0.53125,0.113281 -1.179687,0.171875 -1.9375,0.171875 z M 6.09375,-10.015625 c -0.90625,0 -1.632812,0.296875 -2.171875,0.890625 -0.53125,0.585938 -0.84375,1.390625 -0.9375,2.421875 h 5.875 c 0,-1.070313 -0.242187,-1.890625 -0.71875,-2.453125 -0.480469,-0.570312 -1.164063,-0.859375 -2.046875,-0.859375 z m 0,0"
         id="path58" />
    </g>
  </g>
  <g
     style="fill:#000000;fill-opacity:1"
     id="g62"
     transform="translate(-447.91016,-278.49892)">
    <g
       transform="translate(612.1322,530.00999)"
       id="g61">
      <path
         style="stroke:none"
         d="m 7.03125,0.203125 c -0.730469,0 -1.398438,-0.1367188 -2,-0.40625 -0.605469,-0.269531 -1.117188,-0.6875 -1.53125,-1.25 H 3.390625 C 3.460938,-0.796875 3.5,-0.171875 3.5,0.421875 v 4.625 H 1.8125 v -16.28125 h 1.375 l 0.234375,1.53125 H 3.5 c 0.4375,-0.613281 0.945312,-1.054687 1.53125,-1.328125 0.582031,-0.269531 1.25,-0.40625 2,-0.40625 1.488281,0 2.640625,0.511719 3.453125,1.53125 0.8125,1.011719 1.21875,2.4375 1.21875,4.28125 0,1.84375 -0.414063,3.277344 -1.234375,4.296875 C 9.644531,-0.304688 8.5,0.203125 7.03125,0.203125 Z M 6.78125,-10 C 5.632812,-10 4.804688,-9.679688 4.296875,-9.046875 3.785156,-8.410156 3.519531,-7.398438 3.5,-6.015625 V -5.625 c 0,1.574219 0.265625,2.703125 0.796875,3.390625 0.53125,0.679687 1.375,1.015625 2.53125,1.015625 0.96875,0 1.726563,-0.390625 2.28125,-1.171875 C 9.660156,-3.179688 9.9375,-4.269531 9.9375,-5.65625 9.9375,-7.050781 9.660156,-8.125 9.109375,-8.875 8.554688,-9.625 7.78125,-10 6.78125,-10 Z m 0,0"
         id="path60" />
    </g>
  </g>
  <g
     style="fill:#000000;fill-opacity:1"
     id="g64"
     transform="translate(-447.91016,-278.49892)">
    <g
       transform="translate(624.99368,530.00999)"
       id="g63">
      <path
         style="stroke:none"
         d="m 5.4375,-1.203125 c 0.300781,0 0.59375,-0.019531 0.875,-0.0625 0.28125,-0.039063 0.5,-0.085937 0.65625,-0.140625 v 1.296875 c -0.179688,0.09375 -0.449219,0.1640625 -0.8125,0.21875 -0.355469,0.0625 -0.679688,0.09375 -0.96875,0.09375 -2.179688,0 -3.265625,-1.144531 -3.265625,-3.4375 v -6.6875 H 0.3125 v -0.8125 l 1.609375,-0.703125 0.71875,-2.40625 H 3.625 v 2.609375 h 3.265625 v 1.3125 H 3.625 v 6.625 c 0,0.679687 0.160156,1.199219 0.484375,1.5625 0.320313,0.355469 0.765625,0.53125 1.328125,0.53125 z m 0,0"
         id="path62" />
    </g>
  </g>
  <g
     style="fill:#000000;fill-opacity:1"
     id="g66"
     transform="translate(-447.91016,-278.49892)">
    <g
       transform="translate(632.40312,530.00999)"
       id="g65">
      <path
         style="stroke:none"
         d="M 9.5,0 V -7.265625 C 9.5,-8.179688 9.289062,-8.863281 8.875,-9.3125 8.457031,-9.769531 7.800781,-10 6.90625,-10 5.726562,-10 4.863281,-9.675781 4.3125,-9.03125 3.769531,-8.382812 3.5,-7.332031 3.5,-5.875 V 0 H 1.8125 V -15.953125 H 3.5 V -11.125 c 0,0.585938 -0.027344,1.0625 -0.078125,1.4375 H 3.53125 c 0.332031,-0.53125 0.804688,-0.953125 1.421875,-1.265625 0.625,-0.3125 1.332031,-0.46875 2.125,-0.46875 1.375,0 2.40625,0.328125 3.09375,0.984375 0.6875,0.648438 1.03125,1.683594 1.03125,3.109375 V 0 Z m 0,0"
         id="path64" />
    </g>
  </g>
  <g
     style="fill:#000000;fill-opacity:1"
     id="g68"
     transform="translate(-447.91016,-278.49892)">
    <g
       transform="translate(796.8353,436.06315)"
       id="g67">
      <path
         style="stroke:none"
         d="m 1.65625,-15.796875 c 0,-1.113281 0.617188,-1.671875 1.859375,-1.671875 1.238281,0 1.859375,0.558594 1.859375,1.671875 0,0.53125 -0.15625,0.949219 -0.46875,1.25 -0.304688,0.292969 -0.765625,0.4375 -1.390625,0.4375 -1.242187,0 -1.859375,-0.5625 -1.859375,-1.6875 z M 5.21875,0 H 1.796875 V -12.5625 H 5.21875 Z m 0,0"
         id="path66" />
    </g>
  </g>
  <g
     style="fill:#000000;fill-opacity:1"
     id="g70"
     transform="translate(-447.91016,-278.49892)">
    <g
       transform="translate(803.85196,436.06315)"
       id="g69">
      <path
         style="stroke:none"
         d="M 13.390625,0 H 9.96875 v -7.328125 c 0,-0.90625 -0.164062,-1.582031 -0.484375,-2.03125 -0.324219,-0.457031 -0.839844,-0.6875 -1.546875,-0.6875 -0.960938,0 -1.652344,0.324219 -2.078125,0.96875 C 5.429688,-8.441406 5.21875,-7.382812 5.21875,-5.90625 V 0 H 1.796875 V -12.5625 H 4.40625 l 0.46875,1.609375 h 0.1875 c 0.382812,-0.601563 0.910156,-1.0625 1.578125,-1.375 0.664063,-0.3125 1.425781,-0.46875 2.28125,-0.46875 1.46875,0 2.578125,0.398437 3.328125,1.1875 0.757812,0.792969 1.140625,1.933594 1.140625,3.421875 z m 0,0"
         id="path68" />
    </g>
  </g>
  <g
     style="fill:#000000;fill-opacity:1"
     id="g72"
     transform="translate(-447.91016,-278.49892)">
    <g
       transform="translate(818.96303,436.06315)"
       id="g71">
      <path
         style="stroke:none"
         d="m 7.09375,-2.5 c 0.59375,0 1.3125,-0.128906 2.15625,-0.390625 v 2.546875 c -0.855469,0.375 -1.90625,0.5625 -3.15625,0.5625 -1.367188,0 -2.359375,-0.34375 -2.984375,-1.03125 -0.625,-0.695312 -0.9375,-1.738281 -0.9375,-3.125 V -9.984375 H 0.53125 V -11.4375 l 1.890625,-1.140625 0.984375,-2.65625 h 2.1875 v 2.671875 h 3.515625 v 2.578125 H 5.59375 V -3.9375 c 0,0.492188 0.132812,0.855469 0.40625,1.09375 C 6.269531,-2.613281 6.632812,-2.5 7.09375,-2.5 Z m 0,0"
         id="path70" />
    </g>
  </g>
  <g
     style="fill:#000000;fill-opacity:1"
     id="g74"
     transform="translate(-447.91016,-278.49892)">
    <g
       transform="translate(828.94353,436.06315)"
       id="g73">
      <path
         style="stroke:none"
         d="m 7,-10.359375 c -0.730469,0 -1.304688,0.234375 -1.71875,0.703125 -0.40625,0.460938 -0.640625,1.109375 -0.703125,1.953125 h 4.8125 C 9.367188,-8.546875 9.144531,-9.195312 8.71875,-9.65625 8.300781,-10.125 7.726562,-10.359375 7,-10.359375 Z M 7.484375,0.21875 c -2.023437,0 -3.605469,-0.554688 -4.75,-1.671875 C 1.597656,-2.566406 1.03125,-4.144531 1.03125,-6.1875 c 0,-2.101562 0.523438,-3.726562 1.578125,-4.875 1.050781,-1.15625 2.503906,-1.734375 4.359375,-1.734375 1.78125,0 3.160156,0.507813 4.140625,1.515625 0.988281,1.011719 1.484375,2.40625 1.484375,4.1875 v 1.671875 H 4.5 c 0.039062,0.96875 0.328125,1.730469 0.859375,2.28125 0.539063,0.542969 1.300781,0.8125 2.28125,0.8125 0.75,0 1.460937,-0.078125 2.140625,-0.234375 0.675781,-0.15625 1.378906,-0.40625 2.109375,-0.75 v 2.65625 C 11.296875,-0.363281 10.65625,-0.144531 9.96875,0 9.289062,0.144531 8.460938,0.21875 7.484375,0.21875 Z m 0,0"
         id="path72" />
    </g>
  </g>
  <g
     style="fill:#000000;fill-opacity:1"
     id="g76"
     transform="translate(-447.91016,-278.49892)">
    <g
       transform="translate(842.52778,436.06315)"
       id="g75">
      <path
         style="stroke:none"
         d="m 8.8125,-12.796875 c 0.457031,0 0.84375,0.03906 1.15625,0.109375 L 9.703125,-9.484375 C 9.421875,-9.554688 9.082031,-9.59375 8.6875,-9.59375 7.59375,-9.59375 6.738281,-9.3125 6.125,-8.75 5.519531,-8.1875 5.21875,-7.398438 5.21875,-6.390625 V 0 H 1.796875 v -12.5625 h 2.59375 l 0.5,2.125 H 5.0625 c 0.394531,-0.707031 0.921875,-1.273438 1.578125,-1.703125 0.664063,-0.4375 1.390625,-0.65625 2.171875,-0.65625 z m 0,0"
         id="path74" />
    </g>
  </g>
  <g
     style="fill:#000000;fill-opacity:1"
     id="g78"
     transform="translate(-447.91016,-278.49892)">
    <g
       transform="translate(852.96857,436.06315)"
       id="g77">
      <path
         style="stroke:none"
         d="m 9.765625,0 -0.65625,-1.703125 h -0.09375 c -0.574219,0.71875 -1.167969,1.21875 -1.78125,1.5 C 6.628906,0.078125 5.835938,0.21875 4.859375,0.21875 3.648438,0.21875 2.695312,-0.125 2,-0.8125 1.3125,-1.5 0.96875,-2.476562 0.96875,-3.75 c 0,-1.332031 0.460938,-2.3125 1.390625,-2.9375 0.9375,-0.632812 2.34375,-0.988281 4.21875,-1.0625 l 2.1875,-0.0625 v -0.546875 c 0,-1.28125 -0.652344,-1.921875 -1.953125,-1.921875 -1.011719,0 -2.195312,0.308594 -3.546875,0.921875 l -1.125,-2.328125 c 1.4375,-0.75 3.035156,-1.125 4.796875,-1.125 1.6875,0 2.976562,0.371094 3.875,1.109375 0.894531,0.730469 1.34375,1.84375 1.34375,3.34375 V 0 Z m -1,-5.8125 -1.328125,0.046875 c -1,0.023437 -1.746094,0.199219 -2.234375,0.53125 -0.480469,0.335937 -0.71875,0.835937 -0.71875,1.5 0,0.96875 0.550781,1.453125 1.65625,1.453125 0.789063,0 1.425781,-0.226562 1.90625,-0.6875 0.476563,-0.457031 0.71875,-1.0625 0.71875,-1.8125 z m 0,0"
         id="path76" />
    </g>
  </g>
  <g
     style="fill:#000000;fill-opacity:1"
     id="g80"
     transform="translate(-447.91016,-278.49892)">
    <g
       transform="translate(866.85594,436.06315)"
       id="g79">
      <path
         style="stroke:none"
         d="m 6.890625,0.21875 c -3.90625,0 -5.859375,-2.140625 -5.859375,-6.421875 0,-2.132813 0.53125,-3.765625 1.59375,-4.890625 1.0625,-1.132812 2.585938,-1.703125 4.578125,-1.703125 1.445313,0 2.75,0.289063 3.90625,0.859375 L 10.09375,-9.28125 C 9.550781,-9.5 9.046875,-9.675781 8.578125,-9.8125 c -0.460937,-0.144531 -0.917969,-0.21875 -1.375,-0.21875 -1.78125,0 -2.671875,1.265625 -2.671875,3.796875 0,2.460937 0.890625,3.6875 2.671875,3.6875 0.65625,0 1.265625,-0.085937 1.828125,-0.265625 0.5625,-0.175781 1.125,-0.453125 1.6875,-0.828125 v 2.9375 c -0.554688,0.34375 -1.117188,0.585937 -1.6875,0.71875 C 8.46875,0.148438 7.753906,0.21875 6.890625,0.21875 Z m 0,0"
         id="path78" />
    </g>
  </g>
  <g
     style="fill:#000000;fill-opacity:1"
     id="g82"
     transform="translate(-447.91016,-278.49892)">
    <g
       transform="translate(878.6776,436.06315)"
       id="g81">
      <path
         style="stroke:none"
         d="m 7.09375,-2.5 c 0.59375,0 1.3125,-0.128906 2.15625,-0.390625 v 2.546875 c -0.855469,0.375 -1.90625,0.5625 -3.15625,0.5625 -1.367188,0 -2.359375,-0.34375 -2.984375,-1.03125 -0.625,-0.695312 -0.9375,-1.738281 -0.9375,-3.125 V -9.984375 H 0.53125 V -11.4375 l 1.890625,-1.140625 0.984375,-2.65625 h 2.1875 v 2.671875 h 3.515625 v 2.578125 H 5.59375 V -3.9375 c 0,0.492188 0.132812,0.855469 0.40625,1.09375 C 6.269531,-2.613281 6.632812,-2.5 7.09375,-2.5 Z m 0,0"
         id="path80" />
    </g>
  </g>
  <g
     style="fill:#000000;fill-opacity:1"
     id="g84"
     transform="translate(-447.91016,-278.49892)">
    <g
       transform="translate(888.6581,436.06315)"
       id="g83">
      <path
         style="stroke:none"
         d="m 1.65625,-15.796875 c 0,-1.113281 0.617188,-1.671875 1.859375,-1.671875 1.238281,0 1.859375,0.558594 1.859375,1.671875 0,0.53125 -0.15625,0.949219 -0.46875,1.25 -0.304688,0.292969 -0.765625,0.4375 -1.390625,0.4375 -1.242187,0 -1.859375,-0.5625 -1.859375,-1.6875 z M 5.21875,0 H 1.796875 V -12.5625 H 5.21875 Z m 0,0"
         id="path82" />
    </g>
  </g>
  <g
     style="fill:#000000;fill-opacity:1"
     id="g86"
     transform="translate(-447.91016,-278.49892)">
    <g
       transform="translate(895.67476,436.06315)"
       id="g85">
      <path
         style="stroke:none"
         d="M 4.78125,0 0,-12.5625 h 3.578125 l 2.4375,7.15625 c 0.257813,0.90625 0.425781,1.765625 0.5,2.578125 h 0.0625 C 6.617188,-3.546875 6.789062,-4.40625 7.09375,-5.40625 L 9.5,-12.5625 h 3.578125 L 8.296875,0 Z m 0,0"
         id="path84" />
    </g>
  </g>
  <g
     style="fill:#000000;fill-opacity:1"
     id="g88"
     transform="translate(-447.91016,-278.49892)">
    <g
       transform="translate(908.75381,436.06315)"
       id="g87">
      <path
         style="stroke:none"
         d="m 1.65625,-15.796875 c 0,-1.113281 0.617188,-1.671875 1.859375,-1.671875 1.238281,0 1.859375,0.558594 1.859375,1.671875 0,0.53125 -0.15625,0.949219 -0.46875,1.25 -0.304688,0.292969 -0.765625,0.4375 -1.390625,0.4375 -1.242187,0 -1.859375,-0.5625 -1.859375,-1.6875 z M 5.21875,0 H 1.796875 V -12.5625 H 5.21875 Z m 0,0"
         id="path86" />
    </g>
  </g>
  <g
     style="fill:#000000;fill-opacity:1"
     id="g90"
     transform="translate(-447.91016,-278.49892)">
    <g
       transform="translate(915.77047,436.06315)"
       id="g89">
      <path
         style="stroke:none"
         d="m 7.09375,-2.5 c 0.59375,0 1.3125,-0.128906 2.15625,-0.390625 v 2.546875 c -0.855469,0.375 -1.90625,0.5625 -3.15625,0.5625 -1.367188,0 -2.359375,-0.34375 -2.984375,-1.03125 -0.625,-0.695312 -0.9375,-1.738281 -0.9375,-3.125 V -9.984375 H 0.53125 V -11.4375 l 1.890625,-1.140625 0.984375,-2.65625 h 2.1875 v 2.671875 h 3.515625 v 2.578125 H 5.59375 V -3.9375 c 0,0.492188 0.132812,0.855469 0.40625,1.09375 C 6.269531,-2.613281 6.632812,-2.5 7.09375,-2.5 Z m 0,0"
         id="path88" />
    </g>
  </g>
  <g
     style="fill:#000000;fill-opacity:1"
     id="g92"
     transform="translate(-447.91016,-278.49892)">
    <g
       transform="translate(925.75096,436.06315)"
       id="g91">
      <path
         style="stroke:none"
         d="m 0,-12.5625 h 3.75 l 2.375,7.078125 C 6.320312,-4.878906 6.457031,-4.15625 6.53125,-3.3125 H 6.609375 C 6.691406,-4.082031 6.851562,-4.804688 7.09375,-5.484375 l 2.3125,-7.078125 h 3.671875 L 7.765625,1.609375 C 7.285156,2.921875 6.59375,3.898438 5.6875,4.546875 4.78125,5.203125 3.726562,5.53125 2.53125,5.53125 c -0.59375,0 -1.179688,-0.070312 -1.75,-0.203125 v -2.71875 c 0.414062,0.101563 0.867188,0.15625 1.359375,0.15625 0.601563,0 1.128906,-0.1875 1.578125,-0.5625 C 4.175781,1.835938 4.53125,1.28125 4.78125,0.53125 l 0.203125,-0.625 z m 0,0"
         id="path90" />
    </g>
  </g>
  <g
     style="fill:#000000;fill-opacity:1"
     id="g94"
     transform="translate(-447.91016,-278.49892)">
    <g
       transform="translate(758.98246,530.00999)"
       id="g93">
      <path
         style="stroke:none"
         d="m 9.046875,-3.0625 c 0,1.042969 -0.390625,1.851562 -1.171875,2.421875 -0.773438,0.5625 -1.859375,0.84375 -3.265625,0.84375 C 3.117188,0.203125 1.957031,-0.03125 1.125,-0.5 v -1.578125 c 0.53125,0.273437 1.101562,0.484375 1.71875,0.640625 0.625,0.15625 1.222656,0.234375 1.796875,0.234375 0.894531,0 1.578125,-0.140625 2.046875,-0.421875 0.476562,-0.28125 0.71875,-0.710938 0.71875,-1.296875 0,-0.4375 -0.1875,-0.8125 -0.5625,-1.125 C 6.46875,-4.359375 5.726562,-4.722656 4.625,-5.140625 3.582031,-5.535156 2.835938,-5.878906 2.390625,-6.171875 1.953125,-6.460938 1.625,-6.789062 1.40625,-7.15625 c -0.210938,-0.375 -0.3125,-0.816406 -0.3125,-1.328125 0,-0.914063 0.367188,-1.632813 1.109375,-2.15625 0.75,-0.53125 1.769531,-0.796875 3.0625,-0.796875 1.207031,0 2.390625,0.246094 3.546875,0.734375 l -0.59375,1.375 c -1.136719,-0.457031 -2.164062,-0.6875 -3.078125,-0.6875 -0.804687,0 -1.414063,0.125 -1.828125,0.375 -0.40625,0.25 -0.609375,0.601563 -0.609375,1.046875 0,0.304688 0.078125,0.5625 0.234375,0.78125 0.15625,0.210938 0.398438,0.40625 0.734375,0.59375 0.34375,0.1875 1.003906,0.464844 1.984375,0.828125 1.332031,0.492187 2.226562,0.980469 2.6875,1.46875 0.46875,0.492187 0.703125,1.109375 0.703125,1.859375 z m 0,0"
         id="path92" />
    </g>
  </g>
  <g
     style="fill:#000000;fill-opacity:1"
     id="g96"
     transform="translate(-447.91016,-278.49892)">
    <g
       transform="translate(768.99494,530.00999)"
       id="g95">
      <path
         style="stroke:none"
         d="m 7.03125,0.203125 c -0.730469,0 -1.398438,-0.1367188 -2,-0.40625 -0.605469,-0.269531 -1.117188,-0.6875 -1.53125,-1.25 H 3.390625 C 3.460938,-0.796875 3.5,-0.171875 3.5,0.421875 v 4.625 H 1.8125 v -16.28125 h 1.375 l 0.234375,1.53125 H 3.5 c 0.4375,-0.613281 0.945312,-1.054687 1.53125,-1.328125 0.582031,-0.269531 1.25,-0.40625 2,-0.40625 1.488281,0 2.640625,0.511719 3.453125,1.53125 0.8125,1.011719 1.21875,2.4375 1.21875,4.28125 0,1.84375 -0.414063,3.277344 -1.234375,4.296875 C 9.644531,-0.304688 8.5,0.203125 7.03125,0.203125 Z M 6.78125,-10 C 5.632812,-10 4.804688,-9.679688 4.296875,-9.046875 3.785156,-8.410156 3.519531,-7.398438 3.5,-6.015625 V -5.625 c 0,1.574219 0.265625,2.703125 0.796875,3.390625 0.53125,0.679687 1.375,1.015625 2.53125,1.015625 0.96875,0 1.726563,-0.390625 2.28125,-1.171875 C 9.660156,-3.179688 9.9375,-4.269531 9.9375,-5.65625 9.9375,-7.050781 9.660156,-8.125 9.109375,-8.875 8.554688,-9.625 7.78125,-10 6.78125,-10 Z m 0,0"
         id="path94" />
    </g>
  </g>
  <g
     style="fill:#000000;fill-opacity:1"
     id="g98"
     transform="translate(-447.91016,-278.49892)">
    <g
       transform="translate(781.85642,530.00999)"
       id="g97">
      <path
         style="stroke:none"
         d="m 6.546875,0.203125 c -1.65625,0 -2.96875,-0.503906 -3.9375,-1.515625 -0.960937,-1.007812 -1.4375,-2.414062 -1.4375,-4.21875 0,-1.8125 0.445313,-3.25 1.34375,-4.3125 0.894531,-1.0625 2.09375,-1.59375 3.59375,-1.59375 1.40625,0 2.519531,0.464844 3.34375,1.390625 0.820313,0.917969 1.234375,2.136719 1.234375,3.65625 V -5.3125 h -7.75 c 0.039062,1.324219 0.375,2.328125 1,3.015625 0.632812,0.679687 1.523438,1.015625 2.671875,1.015625 1.207031,0 2.40625,-0.253906 3.59375,-0.765625 v 1.53125 c -0.605469,0.25 -1.179687,0.4335938 -1.71875,0.546875 -0.53125,0.113281 -1.179687,0.171875 -1.9375,0.171875 z M 6.09375,-10.015625 c -0.90625,0 -1.632812,0.296875 -2.171875,0.890625 -0.53125,0.585938 -0.84375,1.390625 -0.9375,2.421875 h 5.875 c 0,-1.070313 -0.242187,-1.890625 -0.71875,-2.453125 -0.480469,-0.570312 -1.164063,-0.859375 -2.046875,-0.859375 z m 0,0"
         id="path96" />
    </g>
  </g>
  <g
     style="fill:#000000;fill-opacity:1"
     id="g100"
     transform="translate(-447.91016,-278.49892)">
    <g
       transform="translate(793.63158,530.00999)"
       id="g99">
      <path
         style="stroke:none"
         d="m 6.546875,0.203125 c -1.65625,0 -2.96875,-0.503906 -3.9375,-1.515625 -0.960937,-1.007812 -1.4375,-2.414062 -1.4375,-4.21875 0,-1.8125 0.445313,-3.25 1.34375,-4.3125 0.894531,-1.0625 2.09375,-1.59375 3.59375,-1.59375 1.40625,0 2.519531,0.464844 3.34375,1.390625 0.820313,0.917969 1.234375,2.136719 1.234375,3.65625 V -5.3125 h -7.75 c 0.039062,1.324219 0.375,2.328125 1,3.015625 0.632812,0.679687 1.523438,1.015625 2.671875,1.015625 1.207031,0 2.40625,-0.253906 3.59375,-0.765625 v 1.53125 c -0.605469,0.25 -1.179687,0.4335938 -1.71875,0.546875 -0.53125,0.113281 -1.179687,0.171875 -1.9375,0.171875 z M 6.09375,-10.015625 c -0.90625,0 -1.632812,0.296875 -2.171875,0.890625 -0.53125,0.585938 -0.84375,1.390625 -0.9375,2.421875 h 5.875 c 0,-1.070313 -0.242187,-1.890625 -0.71875,-2.453125 -0.480469,-0.570312 -1.164063,-0.859375 -2.046875,-0.859375 z m 0,0"
         id="path98" />
    </g>
  </g>
  <g
     style="fill:#000000;fill-opacity:1"
     id="g102"
     transform="translate(-447.91016,-278.49892)">
    <g
       transform="translate(805.40675,530.00999)"
       id="g101">
      <path
         style="stroke:none"
         d="m 9.453125,-1.5 h -0.09375 c -0.78125,1.136719 -1.960937,1.703125 -3.53125,1.703125 -1.46875,0 -2.617187,-0.5 -3.4375,-1.5 -0.8125,-1.007813 -1.21875,-2.441406 -1.21875,-4.296875 0,-1.851562 0.410156,-3.289062 1.234375,-4.3125 0.820312,-1.019531 1.960938,-1.53125 3.421875,-1.53125 1.53125,0 2.703125,0.554688 3.515625,1.65625 h 0.125 l -0.0625,-0.8125 -0.046875,-0.78125 v -4.578125 H 11.0625 V 0 h -1.375 z m -3.40625,0.28125 c 1.164063,0 2.007813,-0.316406 2.53125,-0.953125 0.519531,-0.632813 0.78125,-1.65625 0.78125,-3.0625 V -5.59375 C 9.359375,-7.1875 9.09375,-8.320312 8.5625,-9 c -0.53125,-0.675781 -1.375,-1.015625 -2.53125,-1.015625 -1,0 -1.765625,0.390625 -2.296875,1.171875 -0.53125,0.773438 -0.796875,1.867188 -0.796875,3.28125 0,1.429688 0.257812,2.511719 0.78125,3.25 0.53125,0.730469 1.304688,1.09375 2.328125,1.09375 z m 0,0"
         id="path100" />
    </g>
  </g>
  <g
     style="fill:#000000;fill-opacity:1"
     id="g104"
     transform="translate(-447.91016,-278.49892)">
    <g
       transform="translate(841.03596,530.00999)"
       id="g103">
      <path
         style="stroke:none"
         d="m 6.9375,-11.4375 c 0.5,0 0.945312,0.03906 1.34375,0.109375 l -0.234375,1.59375 c -0.46875,-0.101563 -0.882813,-0.15625 -1.234375,-0.15625 -0.917969,0 -1.699219,0.371094 -2.34375,1.109375 C 3.820312,-8.050781 3.5,-7.132812 3.5,-6.03125 V 0 H 1.8125 V -11.234375 H 3.203125 L 3.40625,-9.15625 h 0.078125 c 0.414063,-0.726562 0.914063,-1.289062 1.5,-1.6875 0.59375,-0.394531 1.242187,-0.59375 1.953125,-0.59375 z m 0,0"
         id="path102" />
    </g>
  </g>
  <g
     style="fill:#000000;fill-opacity:1"
     id="g106"
     transform="translate(-447.91016,-278.49892)">
    <g
       transform="translate(849.60344,530.00999)"
       id="g105">
      <path
         style="stroke:none"
         d="M 8.71875,0 8.375,-1.59375 H 8.296875 c -0.5625,0.699219 -1.125,1.171875 -1.6875,1.421875 -0.554687,0.25 -1.246094,0.375 -2.078125,0.375 -1.117188,0 -1.992188,-0.2851562 -2.625,-0.859375 -0.625,-0.570312 -0.9375,-1.390625 -0.9375,-2.453125 0,-2.269531 1.8125,-3.457031 5.4375,-3.5625 l 1.90625,-0.0625 V -7.4375 c 0,-0.875 -0.195312,-1.519531 -0.578125,-1.9375 -0.375,-0.425781 -0.980469,-0.640625 -1.8125,-0.640625 -0.9375,0 -1.996094,0.289063 -3.171875,0.859375 l -0.53125,-1.296875 c 0.5625,-0.300781 1.171875,-0.535156 1.828125,-0.703125 0.65625,-0.175781 1.316406,-0.265625 1.984375,-0.265625 1.34375,0 2.335938,0.296875 2.984375,0.890625 0.644531,0.59375 0.96875,1.546875 0.96875,2.859375 V 0 Z M 4.875,-1.203125 c 1.050781,0 1.878906,-0.285156 2.484375,-0.859375 C 7.972656,-2.644531 8.28125,-3.460938 8.28125,-4.515625 V -5.53125 l -1.703125,0.078125 c -1.355469,0.042969 -2.335937,0.25 -2.9375,0.625 C 3.046875,-4.453125 2.75,-3.875 2.75,-3.09375 c 0,0.625 0.179688,1.101562 0.546875,1.421875 0.375,0.3125 0.898437,0.46875 1.578125,0.46875 z m 0,0"
         id="path104" />
    </g>
  </g>
  <g
     style="fill:#000000;fill-opacity:1"
     id="g108"
     transform="translate(-447.91016,-278.49892)">
    <g
       transform="translate(861.27613,530.00999)"
       id="g107">
      <path
         style="stroke:none"
         d="M 9.5,0 V -7.265625 C 9.5,-8.179688 9.289062,-8.863281 8.875,-9.3125 8.457031,-9.769531 7.800781,-10 6.90625,-10 5.726562,-10 4.863281,-9.679688 4.3125,-9.046875 3.769531,-8.410156 3.5,-7.359375 3.5,-5.890625 V 0 H 1.8125 v -11.234375 h 1.375 l 0.28125,1.53125 h 0.078125 c 0.351563,-0.550781 0.84375,-0.976563 1.46875,-1.28125 0.625,-0.300781 1.320313,-0.453125 2.09375,-0.453125 1.351563,0 2.375,0.328125 3.0625,0.984375 0.6875,0.648437 1.03125,1.6875 1.03125,3.125 V 0 Z m 0,0"
         id="path106" />
    </g>
  </g>
  <g
     style="fill:#000000;fill-opacity:1"
     id="g110"
     transform="translate(-447.91016,-278.49892)">
    <g
       transform="translate(874.1581,530.00999)"
       id="g109">
      <path
         style="stroke:none"
         d="m 11,-11.234375 v 1.078125 l -2.078125,0.234375 c 0.1875,0.242187 0.351563,0.558594 0.5,0.953125 0.15625,0.386719 0.234375,0.820312 0.234375,1.296875 0,1.105469 -0.375,1.984375 -1.125,2.640625 -0.75,0.65625 -1.78125,0.984375 -3.09375,0.984375 -0.335938,0 -0.652344,-0.023437 -0.953125,-0.078125 -0.71875,0.375 -1.078125,0.855469 -1.078125,1.4375 0,0.3125 0.125,0.542969 0.375,0.6875 0.25,0.148438 0.6875,0.21875 1.3125,0.21875 h 1.984375 c 1.21875,0 2.148437,0.257812 2.796875,0.765625 0.65625,0.511719 0.984375,1.253906 0.984375,2.234375 0,1.25 -0.5,2.195312 -1.5,2.84375 C 8.359375,4.71875 6.90625,5.046875 5,5.046875 3.53125,5.046875 2.394531,4.769531 1.59375,4.21875 0.800781,3.675781 0.40625,2.90625 0.40625,1.90625 0.40625,1.21875 0.625,0.625 1.0625,0.125 1.5,-0.363281 2.113281,-0.695312 2.90625,-0.875 2.613281,-1.007812 2.367188,-1.210938 2.171875,-1.484375 1.984375,-1.753906 1.890625,-2.070312 1.890625,-2.4375 1.890625,-2.851562 2,-3.210938 2.21875,-3.515625 2.4375,-3.828125 2.78125,-4.125 3.25,-4.40625 2.664062,-4.644531 2.191406,-5.050781 1.828125,-5.625 1.460938,-6.195312 1.28125,-6.851562 1.28125,-7.59375 c 0,-1.226562 0.367188,-2.175781 1.109375,-2.84375 0.738281,-0.664062 1.785156,-1 3.140625,-1 0.582031,0 1.109375,0.07031 1.578125,0.203125 z m -8.953125,13.125 c 0,0.601563 0.253906,1.0625 0.765625,1.375 C 3.320312,3.585938 4.054688,3.75 5.015625,3.75 6.441406,3.75 7.5,3.535156 8.1875,3.109375 8.875,2.679688 9.21875,2.097656 9.21875,1.359375 9.21875,0.753906 9.03125,0.332031 8.65625,0.09375 8.28125,-0.132812 7.570312,-0.25 6.53125,-0.25 H 4.484375 C 3.710938,-0.25 3.113281,-0.0664062 2.6875,0.296875 2.257812,0.660156 2.046875,1.191406 2.046875,1.890625 Z m 0.921875,-9.53125 c 0,0.792969 0.21875,1.390625 0.65625,1.796875 0.445312,0.398438 1.066406,0.59375 1.859375,0.59375 1.664063,0 2.5,-0.804688 2.5,-2.421875 0,-1.6875 -0.84375,-2.53125 -2.53125,-2.53125 -0.804687,0 -1.417969,0.21875 -1.84375,0.65625 -0.429687,0.429687 -0.640625,1.0625 -0.640625,1.90625 z m 0,0"
         id="path108" />
    </g>
  </g>
  <g
     style="fill:#000000;fill-opacity:1"
     id="g112"
     transform="translate(-447.91016,-278.49892)">
    <g
       transform="translate(885.65656,530.00999)"
       id="g111">
      <path
         style="stroke:none"
         d="m 6.546875,0.203125 c -1.65625,0 -2.96875,-0.503906 -3.9375,-1.515625 -0.960937,-1.007812 -1.4375,-2.414062 -1.4375,-4.21875 0,-1.8125 0.445313,-3.25 1.34375,-4.3125 0.894531,-1.0625 2.09375,-1.59375 3.59375,-1.59375 1.40625,0 2.519531,0.464844 3.34375,1.390625 0.820313,0.917969 1.234375,2.136719 1.234375,3.65625 V -5.3125 h -7.75 c 0.039062,1.324219 0.375,2.328125 1,3.015625 0.632812,0.679687 1.523438,1.015625 2.671875,1.015625 1.207031,0 2.40625,-0.253906 3.59375,-0.765625 v 1.53125 c -0.605469,0.25 -1.179687,0.4335938 -1.71875,0.546875 -0.53125,0.113281 -1.179687,0.171875 -1.9375,0.171875 z M 6.09375,-10.015625 c -0.90625,0 -1.632812,0.296875 -2.171875,0.890625 -0.53125,0.585938 -0.84375,1.390625 -0.9375,2.421875 h 5.875 c 0,-1.070313 -0.242187,-1.890625 -0.71875,-2.453125 -0.480469,-0.570312 -1.164063,-0.859375 -2.046875,-0.859375 z m 0,0"
         id="path110" />
    </g>
  </g>
  <g
     style="fill:#000000;fill-opacity:1"
     id="g114"
     transform="translate(-447.91016,-278.49892)">
    <g
       transform="translate(915.46174,530.00999)"
       id="g113">
      <path
         style="stroke:none"
         d="m 16.125,0 v -7.3125 c 0,-0.894531 -0.195312,-1.566406 -0.578125,-2.015625 C 15.171875,-9.773438 14.578125,-10 13.765625,-10 c -1.054687,0 -1.835937,0.308594 -2.34375,0.921875 -0.5,0.605469 -0.75,1.539063 -0.75,2.796875 V 0 H 8.96875 v -7.3125 c 0,-0.894531 -0.195312,-1.566406 -0.578125,-2.015625 C 8.003906,-9.773438 7.40625,-10 6.59375,-10 5.53125,-10 4.75,-9.675781 4.25,-9.03125 3.75,-8.394531 3.5,-7.347656 3.5,-5.890625 V 0 H 1.8125 v -11.234375 h 1.375 l 0.28125,1.53125 h 0.078125 c 0.320313,-0.539063 0.773437,-0.960937 1.359375,-1.265625 0.582031,-0.3125 1.238281,-0.46875 1.96875,-0.46875 1.75,0 2.894531,0.636719 3.4375,1.90625 h 0.07813 c 0.34375,-0.59375 0.832031,-1.054688 1.46875,-1.390625 0.632813,-0.34375 1.359375,-0.515625 2.171875,-0.515625 1.269531,0 2.21875,0.328125 2.84375,0.984375 0.632812,0.648437 0.953125,1.6875 0.953125,3.125 V 0 Z m 0,0"
         id="path112" />
    </g>
  </g>
  <g
     style="fill:#000000;fill-opacity:1"
     id="g116"
     transform="translate(-447.91016,-278.49892)">
    <g
       transform="translate(934.98454,530.00999)"
       id="g115">
      <path
         style="stroke:none"
         d="M 8.71875,0 8.375,-1.59375 H 8.296875 c -0.5625,0.699219 -1.125,1.171875 -1.6875,1.421875 -0.554687,0.25 -1.246094,0.375 -2.078125,0.375 -1.117188,0 -1.992188,-0.2851562 -2.625,-0.859375 -0.625,-0.570312 -0.9375,-1.390625 -0.9375,-2.453125 0,-2.269531 1.8125,-3.457031 5.4375,-3.5625 l 1.90625,-0.0625 V -7.4375 c 0,-0.875 -0.195312,-1.519531 -0.578125,-1.9375 -0.375,-0.425781 -0.980469,-0.640625 -1.8125,-0.640625 -0.9375,0 -1.996094,0.289063 -3.171875,0.859375 l -0.53125,-1.296875 c 0.5625,-0.300781 1.171875,-0.535156 1.828125,-0.703125 0.65625,-0.175781 1.316406,-0.265625 1.984375,-0.265625 1.34375,0 2.335938,0.296875 2.984375,0.890625 0.644531,0.59375 0.96875,1.546875 0.96875,2.859375 V 0 Z M 4.875,-1.203125 c 1.050781,0 1.878906,-0.285156 2.484375,-0.859375 C 7.972656,-2.644531 8.28125,-3.460938 8.28125,-4.515625 V -5.53125 l -1.703125,0.078125 c -1.355469,0.042969 -2.335937,0.25 -2.9375,0.625 C 3.046875,-4.453125 2.75,-3.875 2.75,-3.09375 c 0,0.625 0.179688,1.101562 0.546875,1.421875 0.375,0.3125 0.898437,0.46875 1.578125,0.46875 z m 0,0"
         id="path114" />
    </g>
  </g>
  <g
     style="fill:#000000;fill-opacity:1"
     id="g118"
     transform="translate(-447.91016,-278.49892)">
    <g
       transform="translate(946.65722,530.00999)"
       id="g117">
      <path
         style="stroke:none"
         d="m 7.03125,0.203125 c -0.730469,0 -1.398438,-0.1367188 -2,-0.40625 -0.605469,-0.269531 -1.117188,-0.6875 -1.53125,-1.25 H 3.390625 C 3.460938,-0.796875 3.5,-0.171875 3.5,0.421875 v 4.625 H 1.8125 v -16.28125 h 1.375 l 0.234375,1.53125 H 3.5 c 0.4375,-0.613281 0.945312,-1.054687 1.53125,-1.328125 0.582031,-0.269531 1.25,-0.40625 2,-0.40625 1.488281,0 2.640625,0.511719 3.453125,1.53125 0.8125,1.011719 1.21875,2.4375 1.21875,4.28125 0,1.84375 -0.414063,3.277344 -1.234375,4.296875 C 9.644531,-0.304688 8.5,0.203125 7.03125,0.203125 Z M 6.78125,-10 C 5.632812,-10 4.804688,-9.679688 4.296875,-9.046875 3.785156,-8.410156 3.519531,-7.398438 3.5,-6.015625 V -5.625 c 0,1.574219 0.265625,2.703125 0.796875,3.390625 0.53125,0.679687 1.375,1.015625 2.53125,1.015625 0.96875,0 1.726563,-0.390625 2.28125,-1.171875 C 9.660156,-3.179688 9.9375,-4.269531 9.9375,-5.65625 9.9375,-7.050781 9.660156,-8.125 9.109375,-8.875 8.554688,-9.625 7.78125,-10 6.78125,-10 Z m 0,0"
         id="path116" />
    </g>
  </g>
  <g
     style="fill:#000000;fill-opacity:1"
     id="g120"
     transform="translate(-447.91016,-278.49892)">
    <g
       transform="translate(959.5187,530.00999)"
       id="g119">
      <path
         style="stroke:none"
         d="m 7.03125,0.203125 c -0.730469,0 -1.398438,-0.1367188 -2,-0.40625 -0.605469,-0.269531 -1.117188,-0.6875 -1.53125,-1.25 H 3.390625 C 3.460938,-0.796875 3.5,-0.171875 3.5,0.421875 v 4.625 H 1.8125 v -16.28125 h 1.375 l 0.234375,1.53125 H 3.5 c 0.4375,-0.613281 0.945312,-1.054687 1.53125,-1.328125 0.582031,-0.269531 1.25,-0.40625 2,-0.40625 1.488281,0 2.640625,0.511719 3.453125,1.53125 0.8125,1.011719 1.21875,2.4375 1.21875,4.28125 0,1.84375 -0.414063,3.277344 -1.234375,4.296875 C 9.644531,-0.304688 8.5,0.203125 7.03125,0.203125 Z M 6.78125,-10 C 5.632812,-10 4.804688,-9.679688 4.296875,-9.046875 3.785156,-8.410156 3.519531,-7.398438 3.5,-6.015625 V -5.625 c 0,1.574219 0.265625,2.703125 0.796875,3.390625 0.53125,0.679687 1.375,1.015625 2.53125,1.015625 0.96875,0 1.726563,-0.390625 2.28125,-1.171875 C 9.660156,-3.179688 9.9375,-4.269531 9.9375,-5.65625 9.9375,-7.050781 9.660156,-8.125 9.109375,-8.875 8.554688,-9.625 7.78125,-10 6.78125,-10 Z m 0,0"
         id="path118" />
    </g>
  </g>
  <g
     style="fill:#000000;fill-opacity:1"
     id="g122"
     transform="translate(-447.91016,-278.49892)">
    <g
       transform="translate(972.38017,530.00999)"
       id="g121">
      <path
         style="stroke:none"
         d="M 3.5,0 H 1.8125 V -11.234375 H 3.5 Z M 1.65625,-14.28125 c 0,-0.394531 0.09375,-0.679688 0.28125,-0.859375 0.195312,-0.175781 0.441406,-0.265625 0.734375,-0.265625 0.269531,0 0.503906,0.09375 0.703125,0.28125 0.195312,0.179688 0.296875,0.460938 0.296875,0.84375 0,0.386719 -0.101563,0.671875 -0.296875,0.859375 -0.199219,0.1875 -0.433594,0.28125 -0.703125,0.28125 -0.292969,0 -0.539063,-0.09375 -0.734375,-0.28125 -0.1875,-0.1875 -0.28125,-0.472656 -0.28125,-0.859375 z m 0,0"
         id="path120" />
    </g>
  </g>
  <g
     style="fill:#000000;fill-opacity:1"
     id="g124"
     transform="translate(-447.91016,-278.49892)">
    <g
       transform="translate(977.68873,530.00999)"
       id="g123">
      <path
         style="stroke:none"
         d="M 9.5,0 V -7.265625 C 9.5,-8.179688 9.289062,-8.863281 8.875,-9.3125 8.457031,-9.769531 7.800781,-10 6.90625,-10 5.726562,-10 4.863281,-9.679688 4.3125,-9.046875 3.769531,-8.410156 3.5,-7.359375 3.5,-5.890625 V 0 H 1.8125 v -11.234375 h 1.375 l 0.28125,1.53125 h 0.078125 c 0.351563,-0.550781 0.84375,-0.976563 1.46875,-1.28125 0.625,-0.300781 1.320313,-0.453125 2.09375,-0.453125 1.351563,0 2.375,0.328125 3.0625,0.984375 0.6875,0.648437 1.03125,1.6875 1.03125,3.125 V 0 Z m 0,0"
         id="path122" />
    </g>
  </g>
  <g
     style="fill:#000000;fill-opacity:1"
     id="g126"
     transform="translate(-447.91016,-278.49892)">
    <g
       transform="translate(990.57071,530.00999)"
       id="g125">
      <path
         style="stroke:none"
         d="m 11,-11.234375 v 1.078125 l -2.078125,0.234375 c 0.1875,0.242187 0.351563,0.558594 0.5,0.953125 0.15625,0.386719 0.234375,0.820312 0.234375,1.296875 0,1.105469 -0.375,1.984375 -1.125,2.640625 -0.75,0.65625 -1.78125,0.984375 -3.09375,0.984375 -0.335938,0 -0.652344,-0.023437 -0.953125,-0.078125 -0.71875,0.375 -1.078125,0.855469 -1.078125,1.4375 0,0.3125 0.125,0.542969 0.375,0.6875 0.25,0.148438 0.6875,0.21875 1.3125,0.21875 h 1.984375 c 1.21875,0 2.148437,0.257812 2.796875,0.765625 0.65625,0.511719 0.984375,1.253906 0.984375,2.234375 0,1.25 -0.5,2.195312 -1.5,2.84375 C 8.359375,4.71875 6.90625,5.046875 5,5.046875 3.53125,5.046875 2.394531,4.769531 1.59375,4.21875 0.800781,3.675781 0.40625,2.90625 0.40625,1.90625 0.40625,1.21875 0.625,0.625 1.0625,0.125 1.5,-0.363281 2.113281,-0.695312 2.90625,-0.875 2.613281,-1.007812 2.367188,-1.210938 2.171875,-1.484375 1.984375,-1.753906 1.890625,-2.070312 1.890625,-2.4375 1.890625,-2.851562 2,-3.210938 2.21875,-3.515625 2.4375,-3.828125 2.78125,-4.125 3.25,-4.40625 2.664062,-4.644531 2.191406,-5.050781 1.828125,-5.625 1.460938,-6.195312 1.28125,-6.851562 1.28125,-7.59375 c 0,-1.226562 0.367188,-2.175781 1.109375,-2.84375 0.738281,-0.664062 1.785156,-1 3.140625,-1 0.582031,0 1.109375,0.07031 1.578125,0.203125 z m -8.953125,13.125 c 0,0.601563 0.253906,1.0625 0.765625,1.375 C 3.320312,3.585938 4.054688,3.75 5.015625,3.75 6.441406,3.75 7.5,3.535156 8.1875,3.109375 8.875,2.679688 9.21875,2.097656 9.21875,1.359375 9.21875,0.753906 9.03125,0.332031 8.65625,0.09375 8.28125,-0.132812 7.570312,-0.25 6.53125,-0.25 H 4.484375 C 3.710938,-0.25 3.113281,-0.0664062 2.6875,0.296875 2.257812,0.660156 2.046875,1.191406 2.046875,1.890625 Z m 0.921875,-9.53125 c 0,0.792969 0.21875,1.390625 0.65625,1.796875 0.445312,0.398438 1.066406,0.59375 1.859375,0.59375 1.664063,0 2.5,-0.804688 2.5,-2.421875 0,-1.6875 -0.84375,-2.53125 -2.53125,-2.53125 -0.804687,0 -1.417969,0.21875 -1.84375,0.65625 -0.429687,0.429687 -0.640625,1.0625 -0.640625,1.90625 z m 0,0"
         id="path124" />
    </g>
  </g>
  <path
     style="fill:none;stroke:#000000;stroke-width:3;stroke-linecap:butt;stroke-linejoin:miter;stroke-miterlimit:4;stroke-opacity:1"
     d="m 105.03906,163.0753 63.44918,68.78907"
     id="path126" />
  <path
     style="fill:none;stroke:#000000;stroke-width:3;stroke-linecap:butt;stroke-linejoin:miter;stroke-miterlimit:4;stroke-opacity:1"
     d="M 40.332032,231.85655 105.03901,163.07138"
     id="path127" />
  <path
     style="fill:none;stroke:#000000;stroke-width:3;stroke-linecap:butt;stroke-linejoin:miter;stroke-miterlimit:4;stroke-opacity:1"
     d="m 421.11718,231.86046 -1.19531,-69.84764"
     id="path128" />
  <path
     style="fill:none;stroke:#000000;stroke-width:3;stroke-linecap:butt;stroke-linejoin:miter;stroke-miterlimit:4;stroke-opacity:1"
     d="M 510.85156,231.85655 419.9141,162.01283"
     id="path129" />
  <path
     style="fill:none;stroke:#000000;stroke-width:3;stroke-linecap:butt;stroke-linejoin:miter;stroke-miterlimit:4;stroke-opacity:1"
     d="m 340.72656,231.85655 79.19527,-69.84767"
     id="path130" />
  <path
     style="fill:none;stroke:#000000;stroke-width:3;stroke-linecap:butt;stroke-linejoin:miter;stroke-miterlimit:4;stroke-opacity:1"
     d="M 105.03906,136.17295 263.24999,31.372239"
     id="path131" />
  <path
     style="fill:#000000;fill-opacity:1;fill-rule:nonzero;stroke:#000000;stroke-width:3;stroke-linecap:round;stroke-linejoin:round;stroke-miterlimit:4;stroke-opacity:1"
     d="m 261.39062,27.204271 7.48828,0.441405 -2.51954,7.062502 z m 0,0"
     id="path132" />
  <path
     style="fill:none;stroke:#000000;stroke-width:3;stroke-linecap:butt;stroke-linejoin:miter;stroke-miterlimit:4;stroke-opacity:1"
     d="M 419.92187,135.11436 276.8125,31.649545"
     id="path133" />
  <path
     style="fill:#000000;fill-opacity:1;fill-rule:nonzero;stroke:#000000;stroke-width:3;stroke-linecap:round;stroke-linejoin:round;stroke-miterlimit:4;stroke-opacity:1"
     d="m 273.56641,34.856579 -2.22657,-7.164064 7.5,-0.128908 z m 0,0"
     id="path134" />
  <g
     style="fill:#800000;fill-opacity:1"
     id="g136"
     transform="translate(-447.91016,-278.49892)">
    <g
       transform="translate(447.90884,350.46463)"
       id="g135"
       style="fill:#800000">
      <path
         style="stroke:none;fill:#800000"
         d="m 12.21875,0 h -3.125 v -6.703125 c 0,-1.644531 -0.617188,-2.46875 -1.84375,-2.46875 -0.875,0 -1.511719,0.296875 -1.90625,0.890625 -0.386719,0.59375 -0.578125,1.558594 -0.578125,2.890625 V 0 h -3.125 v -15.953125 h 3.125 v 3.25 c 0,0.25 -0.023437,0.84375 -0.0625,1.78125 L 4.625,-10 h 0.15625 c 0.695312,-1.113281 1.804688,-1.671875 3.328125,-1.671875 1.34375,0 2.363281,0.367187 3.0625,1.09375 0.695313,0.71875 1.046875,1.757813 1.046875,3.109375 z m 0,0"
         id="path135" />
    </g>
  </g>
  <g
     style="fill:#800000;fill-opacity:1"
     id="g138"
     transform="translate(-447.91016,-278.49892)">
    <g
       transform="translate(461.70289,350.46463)"
       id="g137"
       style="fill:#800000">
      <path
         style="stroke:none;fill:#800000"
         d="M 9.765625,0 9.34375,-1.46875 H 9.171875 C 8.835938,-0.9375 8.363281,-0.523438 7.75,-0.234375 7.132812,0.0546875 6.4375,0.203125 5.65625,0.203125 4.300781,0.203125 3.28125,-0.15625 2.59375,-0.875 1.914062,-1.59375 1.578125,-2.628906 1.578125,-3.984375 v -7.484375 h 3.125 v 6.703125 c 0,0.824219 0.144531,1.445313 0.4375,1.859375 0.300781,0.417969 0.769531,0.625 1.40625,0.625 0.875,0 1.503906,-0.289062 1.890625,-0.875 C 8.832031,-3.75 9.03125,-4.722656 9.03125,-6.078125 v -5.390625 h 3.125 V 0 Z m 0,0"
         id="path136" />
    </g>
  </g>
  <g
     style="fill:#800000;fill-opacity:1"
     id="g140"
     transform="translate(-447.91016,-278.49892)">
    <g
       transform="translate(475.49695,350.46463)"
       id="g139"
       style="fill:#800000">
      <path
         style="stroke:none;fill:#800000"
         d="m 11.90625,0 h -3.125 v -6.703125 c 0,-0.820313 -0.140625,-1.4375 -0.421875,-1.84375 -0.273437,-0.414063 -0.703125,-0.625 -1.296875,-0.625 -0.804688,0 -1.386719,0.296875 -1.75,0.890625 -0.367188,0.585938 -0.546875,1.546875 -0.546875,2.890625 V 0 h -3.125 V -11.46875 H 4.03125 L 4.453125,-10 H 4.625 c 0.3125,-0.519531 0.753906,-0.925781 1.328125,-1.21875 0.582031,-0.300781 1.25,-0.453125 2,-0.453125 1.71875,0 2.878906,0.558594 3.484375,1.671875 h 0.28125 c 0.3125,-0.53125 0.765625,-0.941406 1.359375,-1.234375 0.59375,-0.289063 1.269531,-0.4375 2.03125,-0.4375 1.289063,0 2.269531,0.335937 2.9375,1 0.664063,0.65625 1,1.726563 1,3.203125 V 0 h -3.125 v -6.703125 c 0,-0.820313 -0.140625,-1.4375 -0.421875,-1.84375 -0.28125,-0.414063 -0.71875,-0.625 -1.3125,-0.625 -0.761719,0 -1.335938,0.277344 -1.71875,0.828125 -0.375,0.542969 -0.5625,1.40625 -0.5625,2.59375 z m 0,0"
         id="path138" />
    </g>
  </g>
  <g
     style="fill:#800000;fill-opacity:1"
     id="g142"
     transform="translate(-447.91016,-278.49892)">
    <g
       transform="translate(496.10605,350.46463)"
       id="g141"
       style="fill:#800000">
      <path
         style="stroke:none;fill:#800000"
         d="M 8.921875,0 8.3125,-1.5625 H 8.234375 c -0.53125,0.667969 -1.078125,1.132812 -1.640625,1.390625 -0.554688,0.25 -1.273438,0.375 -2.15625,0.375 -1.105469,0 -1.976562,-0.3125 -2.609375,-0.9375 C 1.191406,-1.367188 0.875,-2.265625 0.875,-3.421875 c 0,-1.21875 0.425781,-2.113281 1.28125,-2.6875 0.851562,-0.582031 2.140625,-0.90625 3.859375,-0.96875 L 8,-7.140625 v -0.5 C 8,-8.796875 7.40625,-9.375 6.21875,-9.375 c -0.917969,0 -1.996094,0.277344 -3.234375,0.828125 l -1.03125,-2.125 c 1.3125,-0.6875 2.773437,-1.03125 4.390625,-1.03125 1.53125,0 2.707031,0.339844 3.53125,1.015625 0.820312,0.667969 1.234375,1.683594 1.234375,3.046875 V 0 Z M 8,-5.3125 6.78125,-5.265625 C 5.875,-5.242188 5.195312,-5.082031 4.75,-4.78125 c -0.4375,0.304688 -0.65625,0.761719 -0.65625,1.375 0,0.886719 0.503906,1.328125 1.515625,1.328125 0.726563,0 1.304687,-0.207031 1.734375,-0.625 C 7.78125,-3.117188 8,-3.675781 8,-4.375 Z m 0,0"
         id="path140" />
    </g>
  </g>
  <g
     style="fill:#800000;fill-opacity:1"
     id="g144"
     transform="translate(-447.91016,-278.49892)">
    <g
       transform="translate(508.78306,350.46463)"
       id="g143"
       style="fill:#800000">
      <path
         style="stroke:none;fill:#800000"
         d="m 12.21875,0 h -3.125 v -6.703125 c 0,-0.820313 -0.148438,-1.4375 -0.4375,-1.84375 -0.292969,-0.414063 -0.761719,-0.625 -1.40625,-0.625 -0.875,0 -1.511719,0.292969 -1.90625,0.875 -0.386719,0.585937 -0.578125,1.554687 -0.578125,2.90625 V 0 h -3.125 V -11.46875 H 4.03125 L 4.453125,-10 H 4.625 c 0.34375,-0.550781 0.820312,-0.96875 1.4375,-1.25 0.613281,-0.28125 1.3125,-0.421875 2.09375,-0.421875 1.332031,0 2.34375,0.359375 3.03125,1.078125 0.6875,0.71875 1.03125,1.761719 1.03125,3.125 z m 0,0"
         id="path142" />
    </g>
  </g>
  <g
     style="fill:#737373;fill-opacity:1"
     id="g146"
     transform="translate(-447.91016,-278.49892)">
    <g
       transform="translate(522.57712,350.46463)"
       id="g145">
      <path
         style="stroke:none"
         d=""
         id="path144" />
    </g>
  </g>
  <g
     style="fill:#800000;fill-opacity:1"
     id="g148"
     transform="translate(-447.91016,-278.49892)">
    <g
       transform="translate(528.02915,350.46463)"
       id="g147"
       style="fill:#800000">
      <path
         style="stroke:none;fill:#800000"
         d="m 6.390625,-9.453125 c -0.667969,0 -1.1875,0.214844 -1.5625,0.640625 -0.375,0.417969 -0.589844,1.011719 -0.640625,1.78125 H 8.578125 C 8.554688,-7.800781 8.351562,-8.394531 7.96875,-8.8125 7.582031,-9.238281 7.054688,-9.453125 6.390625,-9.453125 Z m 0.4375,9.65625 C 4.984375,0.203125 3.539062,-0.300781 2.5,-1.3125 1.457031,-2.332031 0.9375,-3.78125 0.9375,-5.65625 c 0,-1.914062 0.476562,-3.394531 1.4375,-4.4375 0.96875,-1.050781 2.300781,-1.578125 4,-1.578125 1.613281,0 2.867188,0.464844 3.765625,1.390625 0.90625,0.917969 1.359375,2.1875 1.359375,3.8125 v 1.515625 H 4.109375 c 0.03125,0.886719 0.289063,1.578125 0.78125,2.078125 0.5,0.5 1.191406,0.75 2.078125,0.75 0.695312,0 1.351562,-0.066406 1.96875,-0.203125 0.613281,-0.144531 1.253906,-0.378906 1.921875,-0.703125 v 2.421875 C 10.304688,-0.328125 9.71875,-0.125 9.09375,0 8.476562,0.132812 7.722656,0.203125 6.828125,0.203125 Z m 0,0"
         id="path146" />
    </g>
  </g>
  <g
     style="fill:#800000;fill-opacity:1"
     id="g150"
     transform="translate(-447.91016,-278.49892)">
    <g
       transform="translate(540.42945,350.46463)"
       id="g149"
       style="fill:#800000">
      <path
         style="stroke:none;fill:#800000"
         d="m 3.984375,-5.859375 -3.6875,-5.609375 H 3.84375 L 6.078125,-7.8125 8.3125,-11.46875 h 3.546875 L 8.125,-5.859375 12.03125,0 H 8.484375 L 6.078125,-3.921875 3.65625,0 H 0.109375 Z m 0,0"
         id="path148" />
    </g>
  </g>
  <g
     style="fill:#800000;fill-opacity:1"
     id="g152"
     transform="translate(-447.91016,-278.49892)">
    <g
       transform="translate(552.5633,350.46463)"
       id="g151"
       style="fill:#800000">
      <path
         style="stroke:none;fill:#800000"
         d="m 7.9375,0.203125 c -1.34375,0 -2.402344,-0.488281 -3.171875,-1.46875 H 4.609375 C 4.710938,-0.304688 4.765625,0.25 4.765625,0.40625 v 4.640625 h -3.125 V -11.46875 H 4.1875 l 0.4375,1.484375 h 0.140625 c 0.726563,-1.125 1.8125,-1.6875 3.25,-1.6875 1.351563,0 2.410156,0.523437 3.171875,1.5625 0.769531,1.042969 1.15625,2.496094 1.15625,4.359375 0,1.21875 -0.183594,2.28125 -0.546875,3.1875 -0.355469,0.90625 -0.867187,1.59375 -1.53125,2.0625 C 9.609375,-0.03125 8.832031,0.203125 7.9375,0.203125 Z m -0.921875,-9.375 c -0.773437,0 -1.339844,0.242187 -1.703125,0.71875 -0.355469,0.46875 -0.539062,1.25 -0.546875,2.34375 v 0.34375 c 0,1.230469 0.179687,2.109375 0.546875,2.640625 0.363281,0.53125 0.945312,0.796875 1.75,0.796875 1.394531,0 2.09375,-1.15625 2.09375,-3.46875 0,-1.125 -0.171875,-1.96875 -0.515625,-2.53125 -0.34375,-0.5625 -0.886719,-0.84375 -1.625,-0.84375 z m 0,0"
         id="path150" />
    </g>
  </g>
  <g
     style="fill:#800000;fill-opacity:1"
     id="g154"
     transform="translate(-447.91016,-278.49892)">
    <g
       transform="translate(565.84495,350.46463)"
       id="g153"
       style="fill:#800000">
      <path
         style="stroke:none;fill:#800000"
         d="m 6.390625,-9.453125 c -0.667969,0 -1.1875,0.214844 -1.5625,0.640625 -0.375,0.417969 -0.589844,1.011719 -0.640625,1.78125 H 8.578125 C 8.554688,-7.800781 8.351562,-8.394531 7.96875,-8.8125 7.582031,-9.238281 7.054688,-9.453125 6.390625,-9.453125 Z m 0.4375,9.65625 C 4.984375,0.203125 3.539062,-0.300781 2.5,-1.3125 1.457031,-2.332031 0.9375,-3.78125 0.9375,-5.65625 c 0,-1.914062 0.476562,-3.394531 1.4375,-4.4375 0.96875,-1.050781 2.300781,-1.578125 4,-1.578125 1.613281,0 2.867188,0.464844 3.765625,1.390625 0.90625,0.917969 1.359375,2.1875 1.359375,3.8125 v 1.515625 H 4.109375 c 0.03125,0.886719 0.289063,1.578125 0.78125,2.078125 0.5,0.5 1.191406,0.75 2.078125,0.75 0.695312,0 1.351562,-0.066406 1.96875,-0.203125 0.613281,-0.144531 1.253906,-0.378906 1.921875,-0.703125 v 2.421875 C 10.304688,-0.328125 9.71875,-0.125 9.09375,0 8.476562,0.132812 7.722656,0.203125 6.828125,0.203125 Z m 0,0"
         id="path152" />
    </g>
  </g>
  <g
     style="fill:#800000;fill-opacity:1"
     id="g156"
     transform="translate(-447.91016,-278.49892)">
    <g
       transform="translate(578.24525,350.46463)"
       id="g155"
       style="fill:#800000">
      <path
         style="stroke:none;fill:#800000"
         d="m 8.046875,-11.671875 c 0.414063,0 0.765625,0.02734 1.046875,0.07813 l -0.234375,2.9375 C 8.609375,-8.71875 8.300781,-8.75 7.9375,-8.75 c -1,0 -1.78125,0.257812 -2.34375,0.765625 -0.554688,0.511719 -0.828125,1.230469 -0.828125,2.15625 V 0 h -3.125 v -11.46875 h 2.375 l 0.453125,1.9375 H 4.625 c 0.351562,-0.644531 0.832031,-1.160156 1.4375,-1.546875 0.601562,-0.394531 1.265625,-0.59375 1.984375,-0.59375 z m 0,0"
         id="path154" />
    </g>
  </g>
  <g
     style="fill:#800000;fill-opacity:1"
     id="g158"
     transform="translate(-447.91016,-278.49892)">
    <g
       transform="translate(587.77606,350.46463)"
       id="g157"
       style="fill:#800000">
      <path
         style="stroke:none;fill:#800000"
         d="m 1.5,-14.421875 c 0,-1.019531 0.566406,-1.53125 1.703125,-1.53125 1.132813,0 1.703125,0.511719 1.703125,1.53125 0,0.480469 -0.140625,0.855469 -0.421875,1.125 -0.28125,0.273437 -0.710937,0.40625 -1.28125,0.40625 -1.136719,0 -1.703125,-0.507813 -1.703125,-1.53125 z M 4.765625,0 h -3.125 v -11.46875 h 3.125 z m 0,0"
         id="path156" />
    </g>
  </g>
  <g
     style="fill:#800000;fill-opacity:1"
     id="g160"
     transform="translate(-447.91016,-278.49892)">
    <g
       transform="translate(594.18118,350.46463)"
       id="g159"
       style="fill:#800000">
      <path
         style="stroke:none;fill:#800000"
         d="m 6.390625,-9.453125 c -0.667969,0 -1.1875,0.214844 -1.5625,0.640625 -0.375,0.417969 -0.589844,1.011719 -0.640625,1.78125 H 8.578125 C 8.554688,-7.800781 8.351562,-8.394531 7.96875,-8.8125 7.582031,-9.238281 7.054688,-9.453125 6.390625,-9.453125 Z m 0.4375,9.65625 C 4.984375,0.203125 3.539062,-0.300781 2.5,-1.3125 1.457031,-2.332031 0.9375,-3.78125 0.9375,-5.65625 c 0,-1.914062 0.476562,-3.394531 1.4375,-4.4375 0.96875,-1.050781 2.300781,-1.578125 4,-1.578125 1.613281,0 2.867188,0.464844 3.765625,1.390625 0.90625,0.917969 1.359375,2.1875 1.359375,3.8125 v 1.515625 H 4.109375 c 0.03125,0.886719 0.289063,1.578125 0.78125,2.078125 0.5,0.5 1.191406,0.75 2.078125,0.75 0.695312,0 1.351562,-0.066406 1.96875,-0.203125 0.613281,-0.144531 1.253906,-0.378906 1.921875,-0.703125 v 2.421875 C 10.304688,-0.328125 9.71875,-0.125 9.09375,0 8.476562,0.132812 7.722656,0.203125 6.828125,0.203125 Z m 0,0"
         id="path158" />
    </g>
  </g>
  <g
     style="fill:#800000;fill-opacity:1"
     id="g162"
     transform="translate(-447.91016,-278.49892)">
    <g
       transform="translate(606.58149,350.46463)"
       id="g161"
       style="fill:#800000">
      <path
         style="stroke:none;fill:#800000"
         d="m 12.21875,0 h -3.125 v -6.703125 c 0,-0.820313 -0.148438,-1.4375 -0.4375,-1.84375 -0.292969,-0.414063 -0.761719,-0.625 -1.40625,-0.625 -0.875,0 -1.511719,0.292969 -1.90625,0.875 -0.386719,0.585937 -0.578125,1.554687 -0.578125,2.90625 V 0 h -3.125 V -11.46875 H 4.03125 L 4.453125,-10 H 4.625 c 0.34375,-0.550781 0.820312,-0.96875 1.4375,-1.25 0.613281,-0.28125 1.3125,-0.421875 2.09375,-0.421875 1.332031,0 2.34375,0.359375 3.03125,1.078125 0.6875,0.71875 1.03125,1.761719 1.03125,3.125 z m 0,0"
         id="path160" />
    </g>
  </g>
  <g
     style="fill:#800000;fill-opacity:1"
     id="g164"
     transform="translate(-447.91016,-278.49892)">
    <g
       transform="translate(620.37554,350.46463)"
       id="g163"
       style="fill:#800000">
      <path
         style="stroke:none;fill:#800000"
         d="m 6.296875,0.203125 c -3.574219,0 -5.359375,-1.957031 -5.359375,-5.875 0,-1.945313 0.484375,-3.429687 1.453125,-4.453125 0.976563,-1.03125 2.375,-1.546875 4.1875,-1.546875 1.320313,0 2.507813,0.257813 3.5625,0.765625 L 9.21875,-8.484375 C 8.726562,-8.679688 8.269531,-8.84375 7.84375,-8.96875 7.414062,-9.09375 6.992188,-9.15625 6.578125,-9.15625 4.941406,-9.15625 4.125,-8 4.125,-5.6875 c 0,2.242188 0.816406,3.359375 2.453125,3.359375 0.59375,0 1.144531,-0.078125 1.65625,-0.234375 0.519531,-0.164062 1.035156,-0.421875 1.546875,-0.765625 v 2.6875 c -0.5,0.3125 -1.011719,0.53125 -1.53125,0.65625 -0.523438,0.125 -1.171875,0.1875 -1.953125,0.1875 z m 0,0"
         id="path162" />
    </g>
  </g>
  <g
     style="fill:#800000;fill-opacity:1"
     id="g166"
     transform="translate(-447.91016,-278.49892)">
    <g
       transform="translate(631.16688,350.46463)"
       id="g165"
       style="fill:#800000">
      <path
         style="stroke:none;fill:#800000"
         d="m 6.390625,-9.453125 c -0.667969,0 -1.1875,0.214844 -1.5625,0.640625 -0.375,0.417969 -0.589844,1.011719 -0.640625,1.78125 H 8.578125 C 8.554688,-7.800781 8.351562,-8.394531 7.96875,-8.8125 7.582031,-9.238281 7.054688,-9.453125 6.390625,-9.453125 Z m 0.4375,9.65625 C 4.984375,0.203125 3.539062,-0.300781 2.5,-1.3125 1.457031,-2.332031 0.9375,-3.78125 0.9375,-5.65625 c 0,-1.914062 0.476562,-3.394531 1.4375,-4.4375 0.96875,-1.050781 2.300781,-1.578125 4,-1.578125 1.613281,0 2.867188,0.464844 3.765625,1.390625 0.90625,0.917969 1.359375,2.1875 1.359375,3.8125 v 1.515625 H 4.109375 c 0.03125,0.886719 0.289063,1.578125 0.78125,2.078125 0.5,0.5 1.191406,0.75 2.078125,0.75 0.695312,0 1.351562,-0.066406 1.96875,-0.203125 0.613281,-0.144531 1.253906,-0.378906 1.921875,-0.703125 v 2.421875 C 10.304688,-0.328125 9.71875,-0.125 9.09375,0 8.476562,0.132812 7.722656,0.203125 6.828125,0.203125 Z m 0,0"
         id="path164" />
    </g>
  </g>
  <g
     style="fill:#800000;fill-opacity:1"
     id="g168"
     transform="translate(-447.91016,-278.49892)">
    <g
       transform="translate(447.90884,393.86467)"
       id="g167"
       style="fill:#800000">
      <path
         style="stroke:none;fill:#800000"
         d="m 6.46875,-2.28125 c 0.550781,0 1.207031,-0.117188 1.96875,-0.359375 V -0.3125 c -0.78125,0.34375 -1.742188,0.515625 -2.875,0.515625 -1.25,0 -2.164062,-0.3125 -2.734375,-0.9375 -0.5625,-0.632813 -0.84375,-1.585937 -0.84375,-2.859375 v -5.515625 h -1.5 V -10.4375 l 1.71875,-1.046875 0.90625,-2.421875 h 2 v 2.4375 H 8.3125 v 2.359375 H 5.109375 v 5.515625 c 0,0.449219 0.125,0.78125 0.375,1 0.25,0.210938 0.578125,0.3125 0.984375,0.3125 z m 0,0"
         id="path166" />
    </g>
  </g>
  <g
     style="fill:#800000;fill-opacity:1"
     id="g170"
     transform="translate(-447.91016,-278.49892)">
    <g
       transform="translate(457.01948,393.86467)"
       id="g169"
       style="fill:#800000">
      <path
         style="stroke:none;fill:#800000"
         d="m 6.390625,-9.453125 c -0.667969,0 -1.1875,0.214844 -1.5625,0.640625 -0.375,0.417969 -0.589844,1.011719 -0.640625,1.78125 H 8.578125 C 8.554688,-7.800781 8.351562,-8.394531 7.96875,-8.8125 7.582031,-9.238281 7.054688,-9.453125 6.390625,-9.453125 Z m 0.4375,9.65625 C 4.984375,0.203125 3.539062,-0.300781 2.5,-1.3125 1.457031,-2.332031 0.9375,-3.78125 0.9375,-5.65625 c 0,-1.914062 0.476562,-3.394531 1.4375,-4.4375 0.96875,-1.050781 2.300781,-1.578125 4,-1.578125 1.613281,0 2.867188,0.464844 3.765625,1.390625 0.90625,0.917969 1.359375,2.1875 1.359375,3.8125 v 1.515625 H 4.109375 c 0.03125,0.886719 0.289063,1.578125 0.78125,2.078125 0.5,0.5 1.191406,0.75 2.078125,0.75 0.695312,0 1.351562,-0.066406 1.96875,-0.203125 0.613281,-0.144531 1.253906,-0.378906 1.921875,-0.703125 v 2.421875 C 10.304688,-0.328125 9.71875,-0.125 9.09375,0 8.476562,0.132812 7.722656,0.203125 6.828125,0.203125 Z m 0,0"
         id="path168" />
    </g>
  </g>
  <g
     style="fill:#800000;fill-opacity:1"
     id="g172"
     transform="translate(-447.91016,-278.49892)">
    <g
       transform="translate(469.41978,393.86467)"
       id="g171"
       style="fill:#800000">
      <path
         style="stroke:none;fill:#800000"
         d="m 6.296875,0.203125 c -3.574219,0 -5.359375,-1.957031 -5.359375,-5.875 0,-1.945313 0.484375,-3.429687 1.453125,-4.453125 0.976563,-1.03125 2.375,-1.546875 4.1875,-1.546875 1.320313,0 2.507813,0.257813 3.5625,0.765625 L 9.21875,-8.484375 C 8.726562,-8.679688 8.269531,-8.84375 7.84375,-8.96875 7.414062,-9.09375 6.992188,-9.15625 6.578125,-9.15625 4.941406,-9.15625 4.125,-8 4.125,-5.6875 c 0,2.242188 0.816406,3.359375 2.453125,3.359375 0.59375,0 1.144531,-0.078125 1.65625,-0.234375 0.519531,-0.164062 1.035156,-0.421875 1.546875,-0.765625 v 2.6875 c -0.5,0.3125 -1.011719,0.53125 -1.53125,0.65625 -0.523438,0.125 -1.171875,0.1875 -1.953125,0.1875 z m 0,0"
         id="path170" />
    </g>
  </g>
  <g
     style="fill:#800000;fill-opacity:1"
     id="g174"
     transform="translate(-447.91016,-278.49892)">
    <g
       transform="translate(480.21113,393.86467)"
       id="g173"
       style="fill:#800000">
      <path
         style="stroke:none;fill:#800000"
         d="m 12.21875,0 h -3.125 v -6.703125 c 0,-1.644531 -0.617188,-2.46875 -1.84375,-2.46875 -0.875,0 -1.511719,0.296875 -1.90625,0.890625 -0.386719,0.59375 -0.578125,1.558594 -0.578125,2.890625 V 0 h -3.125 v -15.953125 h 3.125 v 3.25 c 0,0.25 -0.023437,0.84375 -0.0625,1.78125 L 4.625,-10 h 0.15625 c 0.695312,-1.113281 1.804688,-1.671875 3.328125,-1.671875 1.34375,0 2.363281,0.367187 3.0625,1.09375 0.695313,0.71875 1.046875,1.757813 1.046875,3.109375 z m 0,0"
         id="path172" />
    </g>
  </g>
  <g
     style="fill:#800000;fill-opacity:1"
     id="g176"
     transform="translate(-447.91016,-278.49892)">
    <g
       transform="translate(494.00518,393.86467)"
       id="g175"
       style="fill:#800000">
      <path
         style="stroke:none;fill:#800000"
         d="m 12.21875,0 h -3.125 v -6.703125 c 0,-0.820313 -0.148438,-1.4375 -0.4375,-1.84375 -0.292969,-0.414063 -0.761719,-0.625 -1.40625,-0.625 -0.875,0 -1.511719,0.292969 -1.90625,0.875 -0.386719,0.585937 -0.578125,1.554687 -0.578125,2.90625 V 0 h -3.125 V -11.46875 H 4.03125 L 4.453125,-10 H 4.625 c 0.34375,-0.550781 0.820312,-0.96875 1.4375,-1.25 0.613281,-0.28125 1.3125,-0.421875 2.09375,-0.421875 1.332031,0 2.34375,0.359375 3.03125,1.078125 0.6875,0.71875 1.03125,1.761719 1.03125,3.125 z m 0,0"
         id="path174" />
    </g>
  </g>
  <g
     style="fill:#800000;fill-opacity:1"
     id="g178"
     transform="translate(-447.91016,-278.49892)">
    <g
       transform="translate(507.79924,393.86467)"
       id="g177"
       style="fill:#800000">
      <path
         style="stroke:none;fill:#800000"
         d="m 4.125,-5.75 c 0,1.136719 0.1875,1.996094 0.5625,2.578125 0.375,0.574219 0.984375,0.859375 1.828125,0.859375 0.832031,0 1.429687,-0.285156 1.796875,-0.859375 0.363281,-0.582031 0.546875,-1.441406 0.546875,-2.578125 0,-1.132812 -0.1875,-1.984375 -0.5625,-2.546875 -0.367187,-0.570313 -0.96875,-0.859375 -1.8125,-0.859375 -0.835937,0 -1.4375,0.28125 -1.8125,0.84375 C 4.304688,-7.75 4.125,-6.894531 4.125,-5.75 Z m 7.9375,0 c 0,1.867188 -0.496094,3.324219 -1.484375,4.375 -0.980469,1.054688 -2.351563,1.578125 -4.109375,1.578125 -1.105469,0 -2.078125,-0.2382812 -2.921875,-0.71875 C 2.710938,-0.992188 2.066406,-1.6875 1.609375,-2.59375 1.160156,-3.5 0.9375,-4.550781 0.9375,-5.75 c 0,-1.875 0.488281,-3.328125 1.46875,-4.359375 0.976562,-1.039063 2.351562,-1.5625 4.125,-1.5625 1.101562,0 2.070312,0.242187 2.90625,0.71875 0.84375,0.46875 1.488281,1.152344 1.9375,2.046875 0.457031,0.898438 0.6875,1.949219 0.6875,3.15625 z m 0,0"
         id="path176" />
    </g>
  </g>
  <g
     style="fill:#800000;fill-opacity:1"
     id="g180"
     transform="translate(-447.91016,-278.49892)">
    <g
       transform="translate(520.79393,393.86467)"
       id="g179"
       style="fill:#800000">
      <path
         style="stroke:none;fill:#800000"
         d="m 4.765625,0 h -3.125 v -15.953125 h 3.125 z m 0,0"
         id="path178" />
    </g>
  </g>
  <g
     style="fill:#800000;fill-opacity:1"
     id="g182"
     transform="translate(-447.91016,-278.49892)">
    <g
       transform="translate(527.19905,393.86467)"
       id="g181"
       style="fill:#800000">
      <path
         style="stroke:none;fill:#800000"
         d="m 4.125,-5.75 c 0,1.136719 0.1875,1.996094 0.5625,2.578125 0.375,0.574219 0.984375,0.859375 1.828125,0.859375 0.832031,0 1.429687,-0.285156 1.796875,-0.859375 0.363281,-0.582031 0.546875,-1.441406 0.546875,-2.578125 0,-1.132812 -0.1875,-1.984375 -0.5625,-2.546875 -0.367187,-0.570313 -0.96875,-0.859375 -1.8125,-0.859375 -0.835937,0 -1.4375,0.28125 -1.8125,0.84375 C 4.304688,-7.75 4.125,-6.894531 4.125,-5.75 Z m 7.9375,0 c 0,1.867188 -0.496094,3.324219 -1.484375,4.375 -0.980469,1.054688 -2.351563,1.578125 -4.109375,1.578125 -1.105469,0 -2.078125,-0.2382812 -2.921875,-0.71875 C 2.710938,-0.992188 2.066406,-1.6875 1.609375,-2.59375 1.160156,-3.5 0.9375,-4.550781 0.9375,-5.75 c 0,-1.875 0.488281,-3.328125 1.46875,-4.359375 0.976562,-1.039063 2.351562,-1.5625 4.125,-1.5625 1.101562,0 2.070312,0.242187 2.90625,0.71875 0.84375,0.46875 1.488281,1.152344 1.9375,2.046875 0.457031,0.898438 0.6875,1.949219 0.6875,3.15625 z m 0,0"
         id="path180" />
    </g>
  </g>
  <g
     style="fill:#800000;fill-opacity:1"
     id="g184"
     transform="translate(-447.91016,-278.49892)">
    <g
       transform="translate(540.19375,393.86467)"
       id="g183"
       style="fill:#800000">
      <path
         style="stroke:none;fill:#800000"
         d="M 11.625,-11.46875 V -9.875 l -1.796875,0.46875 c 0.320313,0.511719 0.484375,1.085938 0.484375,1.71875 0,1.230469 -0.433594,2.1875 -1.296875,2.875 -0.855469,0.6875 -2.042969,1.03125 -3.5625,1.03125 L 4.890625,-3.8125 4.4375,-3.859375 c -0.324219,0.242187 -0.484375,0.511719 -0.484375,0.8125 0,0.449219 0.570313,0.671875 1.71875,0.671875 H 7.625 c 1.25,0 2.203125,0.273438 2.859375,0.8125 0.664063,0.542969 1,1.339844 1,2.390625 0,1.332031 -0.5625,2.367187 -1.6875,3.109375 C 8.679688,4.675781 7.082031,5.046875 5,5.046875 3.394531,5.046875 2.171875,4.765625 1.328125,4.203125 0.484375,3.648438 0.0625,2.867188 0.0625,1.859375 0.0625,1.171875 0.273438,0.59375 0.703125,0.125 1.140625,-0.332031 1.773438,-0.660156 2.609375,-0.859375 2.285156,-0.992188 2.003906,-1.21875 1.765625,-1.53125 1.523438,-1.84375 1.40625,-2.171875 1.40625,-2.515625 c 0,-0.4375 0.125,-0.800781 0.375,-1.09375 0.25,-0.289063 0.613281,-0.578125 1.09375,-0.859375 -0.59375,-0.257812 -1.070312,-0.675781 -1.421875,-1.25 -0.355469,-0.570312 -0.53125,-1.25 -0.53125,-2.03125 0,-1.25 0.40625,-2.210938 1.21875,-2.890625 0.8125,-0.6875 1.972656,-1.03125 3.484375,-1.03125 0.320312,0 0.703125,0.03125 1.140625,0.09375 0.445313,0.05469 0.734375,0.08984 0.859375,0.109375 z M 2.765625,1.625 c 0,0.425781 0.207031,0.757812 0.625,1 C 3.804688,2.875 4.382812,3 5.125,3 6.25,3 7.128906,2.84375 7.765625,2.53125 8.398438,2.226562 8.71875,1.8125 8.71875,1.28125 c 0,-0.429688 -0.1875,-0.726562 -0.5625,-0.890625 -0.375,-0.167969 -0.960938,-0.25 -1.75,-0.25 h -1.625 c -0.574219,0 -1.054688,0.132813 -1.4375,0.40625 C 2.957031,0.816406 2.765625,1.175781 2.765625,1.625 Z M 3.90625,-7.71875 c 0,0.625 0.140625,1.121094 0.421875,1.484375 0.289063,0.367187 0.722656,0.546875 1.296875,0.546875 0.59375,0 1.023438,-0.179688 1.296875,-0.546875 0.269531,-0.363281 0.40625,-0.859375 0.40625,-1.484375 0,-1.375 -0.570313,-2.0625 -1.703125,-2.0625 -1.148438,0 -1.71875,0.6875 -1.71875,2.0625 z m 0,0"
         id="path182" />
    </g>
  </g>
  <g
     style="fill:#800000;fill-opacity:1"
     id="g186"
     transform="translate(-447.91016,-278.49892)">
    <g
       transform="translate(552.0509,393.86467)"
       id="g185"
       style="fill:#800000">
      <path
         style="stroke:none;fill:#800000"
         d="m 0,-11.46875 h 3.421875 l 2.171875,6.453125 c 0.175781,0.5625 0.300781,1.226563 0.375,1.984375 h 0.0625 C 6.101562,-3.726562 6.25,-4.390625 6.46875,-5.015625 l 2.125,-6.453125 h 3.359375 L 7.09375,1.46875 C 6.644531,2.664062 6.007812,3.5625 5.1875,4.15625 4.363281,4.75 3.40625,5.046875 2.3125,5.046875 1.769531,5.046875 1.238281,4.988281 0.71875,4.875 V 2.390625 c 0.375,0.082031 0.785156,0.125 1.234375,0.125 C 2.503906,2.515625 2.984375,2.34375 3.390625,2 3.804688,1.664062 4.132812,1.160156 4.375,0.484375 l 0.171875,-0.5625 z m 0,0"
         id="path184" />
    </g>
  </g>
  <path
     style="fill:#aa0000;fill-opacity:1;fill-rule:nonzero;stroke:none"
     d="m 0,84.46592 h 36 v 6 H 0 m 42,-6 h 36 v 6 H 42 m 42,-6 h 36 v 6 H 84 m 42,-6 h 36 v 6 h -36 m 42,-6 h 36 v 6 h -36 m 42,-6 h 36 v 6 h -36 m 42,-6 h 36 v 6 h -36 m 42,-6 h 36 v 6 h -36 m 42,-6 h 36 v 6 h -36 m 42,-6 h 36 v 6 h -36 m 42,-6 h 36 v 6 h -36 m 42,-6 h 36 v 6 h -36 m 42,-6 h 36 v 6 h -36 m 42,-6 h 12.12504 v 6 H 546"
     id="path186" />
</svg>
